<svg width="198" height="155" viewBox="0 0 198 155" fill="none" xmlns="http://www.w3.org/2000/svg">
<g clip-path="url(#clip0)">
<path opacity="0.1" d="M186.129 97.9699C179.449 106.497 182.038 118.964 186.289 128.943C187.706 132.285 189.325 135.82 188.718 139.404C187.983 143.785 184.085 146.991 179.99 148.688C172.527 151.785 163.594 151.046 156.74 146.768C150.814 143.07 146.571 137.056 140.547 133.528C130.461 127.621 117.624 129.851 106.671 133.92C98.9223 136.799 90.4512 140.541 82.7513 137.534C77.3326 135.416 73.5879 130.265 71.5476 124.803C70.5618 122.164 69.8473 119.321 67.9668 117.222C66.8475 115.979 65.388 115.098 63.8942 114.353C50.2412 107.565 32.9974 111.2 19.7351 103.669C10.7782 98.5831 5.04577 88.9876 2.50545 78.984C-0.0348735 68.9804 0.262679 58.4895 0.906363 48.1854C1.36382 40.8639 2.18563 33.047 6.85132 27.3944C11.7862 21.4171 20.2533 19.1938 27.9026 20.3288C35.5519 21.4637 42.4927 25.5184 48.6037 30.2857C56.2327 36.2468 63.3052 43.6698 72.671 46.086C79.0491 47.7306 85.7592 46.8311 92.3357 46.5184C103.333 45.9966 114.334 47.156 125.271 48.425C135.74 49.6432 146.286 50.9751 156.261 54.3922C163.319 56.8104 168.979 61.198 175.642 64.2638C179.986 66.2617 184.724 66.814 188.838 69.3601C193.898 72.4949 198.554 77.9485 197.252 84.332C196.017 90.3987 189.68 93.4422 186.129 97.9699Z" fill="url(#paint0_linear)"/>
<path d="M155.218 128.204C154.423 127.266 153.521 126.425 152.53 125.699C152.737 125.548 152.939 125.397 153.137 125.246C155.692 123.341 157.88 121.388 158.35 119.985C159.605 116.263 172.472 109.441 172.472 109.441C172.472 109.441 159.291 111.922 152.386 107.89C148.267 105.484 141.913 105.066 137.458 105.121L137.491 105.044L137.551 104.91C137.586 104.834 137.62 104.761 137.657 104.686C137.693 104.611 137.715 104.564 137.748 104.504L137.774 104.455C137.821 104.365 137.869 104.276 137.92 104.187C138.043 103.968 138.175 103.748 138.314 103.529V103.517C138.674 102.962 139.064 102.428 139.482 101.917L139.499 101.897C139.833 101.49 140.181 101.084 140.531 100.713L140.551 100.691L140.798 100.429L140.839 100.388C141.173 100.037 141.507 99.7038 141.83 99.3931L141.905 99.3221L142.108 99.1373L142.201 99.05L142.381 98.8815L142.476 98.7942L142.745 98.5505L142.891 98.4206L143 98.3251L143.16 98.1851L143.241 98.116L143.444 97.9373L143.462 97.9211C144.116 97.3607 144.547 97.0338 144.547 97.0338H144.537C144.329 97.183 144.112 97.3187 143.887 97.4399L143.857 97.4541L143.654 97.5556L143.598 97.582L143.417 97.6632L143.316 97.7039L143.174 97.7627L143.037 97.8135L142.925 97.8541L142.751 97.913L142.67 97.9394L142.448 98.0064L142.411 98.0165L142.148 98.0876C137.57 99.2713 131.062 97.5211 130.465 97.3546L130.426 97.3445C130.426 97.3445 127.811 96.8024 124.423 96.3151C125.993 93.0909 127.566 90.0575 129.024 87.3571C130.281 90.1183 132.417 92.3823 135.096 93.7934C135.197 93.6797 135.298 93.5619 135.383 93.4441C135.687 93.6188 135.867 93.702 135.867 93.702C136.718 92.7266 137.309 91.5521 137.588 90.2869C138.459 91.1159 139.444 91.8159 140.513 92.366C140.6 92.2672 140.685 92.1664 140.766 92.0635C140.889 92.1285 140.956 92.1609 140.956 92.1609C142.65 90.2463 143.1 87.7733 142.909 85.2577C146.059 86.4603 149.536 86.4754 152.696 85.3004C152.696 85.2882 152.696 85.274 152.696 85.2618C152.988 85.1623 153.148 85.0933 153.148 85.0933C152.892 83.2111 151.933 81.6416 150.629 80.3381C156.678 80.464 159.941 76.7038 159.941 76.7038L159.906 76.6571C160.155 76.4236 160.281 76.2794 160.281 76.2794C159.481 75.1494 158.472 74.1844 157.309 73.4369C160.07 71.7984 161.266 69.6767 161.266 69.6767C161.198 69.6117 161.125 69.5488 161.064 69.4858C161.216 69.2666 161.291 69.1346 161.291 69.1346C161.139 68.9904 160.981 68.8544 160.823 68.7285C160.926 68.5722 160.977 68.4828 160.977 68.4828C158.548 66.1906 155.325 65.3642 152.129 65.2688C154.061 63.1159 155.25 60.3963 155.52 57.5128C153.091 56.7189 150.609 57.2671 148.35 58.4082C148.535 56.3017 148.231 54.1809 147.464 52.2115C148.083 52.6902 148.75 53.1038 149.453 53.446C149.54 53.3458 149.623 53.2436 149.702 53.1394C149.826 53.2023 149.905 53.2328 149.905 53.2328C151.569 51.2918 151.978 48.8127 151.749 46.3092C154.917 47.4628 158.394 47.4238 161.536 46.1996V46.161C161.825 46.0575 161.983 45.9864 161.983 45.9864C161.698 44.1083 160.722 42.5531 159.39 41.2699C165.438 41.3024 168.642 37.4914 168.642 37.4914L168.606 37.4447C168.851 37.2071 168.974 37.0609 168.974 37.0609C168.156 35.9472 167.132 35.0016 165.958 34.2753C168.693 32.5941 169.855 30.4541 169.855 30.4541C169.784 30.3892 169.711 30.3282 169.64 30.2653C169.788 30.042 169.861 29.91 169.861 29.91C169.707 29.7679 169.547 29.6339 169.387 29.5039C169.489 29.3455 169.539 29.2562 169.539 29.2562C167.076 27.0025 163.839 26.2249 160.633 26.1802C162.529 23.9974 163.674 21.26 163.898 18.3735C161.449 17.6161 158.985 18.2049 156.744 19.3886C156.918 17.0963 156.5 14.7978 155.53 12.7148C155.364 12.7493 155.202 12.79 155.042 12.8326C155.004 12.7514 154.981 12.7108 154.981 12.7108C154.917 12.5686 154.876 12.4915 154.876 12.4915C152.097 13.0539 150.103 15.0619 148.686 17.474C148.581 17.6527 148.484 17.8334 148.381 18.0161C147.327 15.4081 145.496 13.19 143.138 11.6651C141.067 13.6244 140.47 16.4101 140.584 19.2282C140.584 19.4191 140.604 19.6099 140.616 19.8008C138.246 17.9437 135.34 16.9078 132.333 16.8487C131.906 18.5217 132.108 20.1683 132.695 21.7215C130.668 21.4088 128.597 21.5537 126.633 22.1459C126.633 22.1723 126.633 22.1987 126.633 22.2251C126.344 22.3022 126.184 22.3591 126.184 22.3591C126.342 24.7183 127.601 26.6695 129.335 28.2471C126.669 28.6435 124.176 29.8129 122.164 31.6114C122.231 31.7305 122.299 31.8463 122.366 31.9586C122.224 32.0825 122.152 32.1617 122.152 32.1617C123.388 34.3524 125.552 35.5991 127.967 36.2752C125.509 37.7475 123.577 39.961 122.447 42.5998C122.506 42.6404 122.564 42.6789 122.623 42.7196C122.5 42.9876 122.443 43.1439 122.443 43.1439C124.506 44.6179 127.007 44.8433 129.491 44.4433C129.09 45.8762 128.922 47.3647 128.993 48.8513C127.469 50.9974 125.923 53.2429 124.396 55.5149C124.121 55.4987 123.967 55.5007 123.967 55.5007C123.884 55.8083 123.821 56.1209 123.779 56.4367C122.937 57.6955 122.103 58.9584 121.283 60.2111C120.237 60.2473 119.2 60.4158 118.196 60.7126C118.196 60.739 118.196 60.7654 118.196 60.7918C117.907 60.8649 117.745 60.9177 117.745 60.9177C117.745 60.9502 117.745 60.9827 117.745 61.0152C116.389 59.1777 114.49 57.8031 112.444 56.7778C115.117 55.642 117.36 53.6822 118.848 51.1821C116.984 49.4401 114.508 48.898 111.966 48.9832C113.14 47.0075 113.787 44.7614 113.844 42.4617C113.68 42.4191 113.516 42.3866 113.353 42.3561C113.353 42.2668 113.353 42.2201 113.353 42.2201C113.353 42.0637 113.353 41.9785 113.353 41.9785C110.606 41.276 107.924 42.216 105.576 43.7672C105.402 43.883 105.23 44.0007 105.06 44.1225C105.275 41.3299 104.615 38.5396 103.173 36.1412C100.44 37.0041 98.6672 39.2456 97.5175 41.8262C97.4386 42.0008 97.3657 42.1774 97.2928 42.3561C95.9864 39.657 93.8332 37.4623 91.1637 36.1087C90.0362 37.4264 89.4876 38.9938 89.3217 40.6466C87.6341 39.4843 85.7086 38.7156 83.6864 38.3969L83.6581 38.472C83.3646 38.4152 83.1945 38.3969 83.1945 38.3969C82.2877 40.5856 82.559 42.8881 83.397 45.0585C80.8238 44.2647 78.0768 44.2336 75.4865 44.9692C75.4865 45.1052 75.5048 45.2392 75.521 45.3753C75.3388 45.426 75.2416 45.4585 75.2416 45.4585C75.3793 47.964 76.7678 50.0228 78.6382 51.6775C75.7743 51.9362 73.0619 53.083 70.8775 54.9586C70.9119 55.0215 70.9484 55.0804 70.9828 55.1413C70.754 55.3281 70.6326 55.4438 70.6326 55.4438C71.8309 57.663 73.9785 58.9523 76.3853 59.6711C74.9893 61.2056 73.9686 63.0449 73.4037 65.0434C73.5858 65.1409 73.768 65.2282 73.9542 65.3114C73.9138 65.4515 73.8955 65.5307 73.8955 65.5307C76.4763 66.9296 79.4296 66.5987 82.1744 65.5835C81.3424 71.3639 84.7693 75.4429 84.7693 75.4429C84.909 75.382 85.0466 75.3171 85.1742 75.2399C85.3766 75.5242 85.5001 75.6764 85.5001 75.6764C86.6928 75.1522 87.7364 74.3378 88.5363 73.307C88.969 74.4232 89.5601 75.4708 90.2912 76.4175C90.414 76.3647 90.5341 76.3085 90.6515 76.249C90.7345 76.3586 90.7831 76.4175 90.7831 76.4175C91.9749 75.8963 93.0184 75.0854 93.8194 74.0582C94.0886 79.9788 94.3193 89.7448 93.6514 99.8175C93.2465 105.965 92.5036 112.229 91.2224 117.804C88.9006 108.17 85.9069 96.4998 82.8767 86.7927C79.5733 76.2084 73.2094 66.1012 67.3049 56.6864C63.0926 49.972 57.7569 41.7348 52.7532 34.793C57.3966 36.3401 61.0522 34.7159 61.0522 34.7159C61.0522 34.7159 61.0522 34.6773 61.0401 34.659C61.366 34.5534 61.5421 34.4742 61.5421 34.4742C61.3027 33.1196 60.8029 31.8245 60.0705 30.6612C63.2748 30.3384 65.2706 28.9192 65.2706 28.9192C65.2362 28.8298 65.1977 28.7446 65.1613 28.6573C65.3941 28.5212 65.5175 28.4339 65.5175 28.4339C65.4406 28.2309 65.3576 28.0502 65.2706 27.8634C65.4325 27.7659 65.5175 27.705 65.5175 27.705C64.303 24.6107 61.7425 22.5073 58.8904 21.0799C61.5635 19.9442 63.8066 17.9843 65.2949 15.4842C63.4306 13.7422 60.9551 13.2001 58.4127 13.2854C59.5909 11.3133 60.2427 9.07012 60.3053 6.77196C60.1414 6.72932 59.9774 6.69683 59.8135 6.66638C59.8135 6.57704 59.8135 6.53034 59.8135 6.53034C59.8135 6.374 59.8135 6.28873 59.8135 6.28873C57.0667 5.58622 54.3847 6.52628 52.0366 8.07748C51.8626 8.19321 51.6905 8.31097 51.5205 8.43279C51.7358 5.64018 51.0763 2.84983 49.634 0.451432C46.9013 1.31434 45.1282 3.55586 43.9785 6.13645C43.8995 6.31106 43.8266 6.48771 43.7538 6.66638C42.4474 3.96722 40.2942 1.77252 37.6246 0.418945C36.4972 1.73665 35.9486 3.30409 35.7826 4.95681C34.0945 3.79429 32.1683 3.02561 30.1453 2.70717L30.117 2.78229C29.8235 2.72544 29.6535 2.70717 29.6535 2.70717C28.7466 4.8959 29.0179 7.19833 29.8559 9.36879C27.274 8.56933 24.5163 8.5383 21.9171 9.27946C21.9171 9.41549 21.9353 9.54949 21.9515 9.68553C21.7694 9.73629 21.6722 9.76877 21.6722 9.76877C21.8098 12.2742 23.1984 14.333 25.0687 15.9878C22.2057 16.249 19.4947 17.3979 17.3122 19.2749C17.3466 19.3379 17.383 19.3968 17.4174 19.4577C17.1887 19.6445 17.0672 19.7602 17.0672 19.7602C18.2655 21.9794 20.4132 23.2687 22.8199 23.9874C21.424 25.5219 20.4032 27.3612 19.8383 29.3598C20.0205 29.4572 20.2027 29.5445 20.3889 29.6278C20.3484 29.7679 20.3302 29.847 20.3302 29.847C22.911 31.246 25.8642 30.915 28.609 29.8998C27.7771 35.6803 31.204 39.7593 31.204 39.7593C31.3436 39.6984 31.4813 39.6334 31.6088 39.5562C31.8112 39.8405 31.9347 39.9928 31.9347 39.9928C33.1275 39.4685 34.1711 38.6541 34.9709 37.6233C35.4057 38.7444 36.0002 39.7962 36.736 40.746C36.8588 40.6932 36.9789 40.6371 37.0963 40.5775C37.1793 40.6872 37.2279 40.746 37.2279 40.746C39.584 39.7309 41.0535 37.6761 41.9624 35.327C45.2678 38.805 49.472 39.3715 50.5448 39.4608C56.6983 48.1792 64.1695 59.5086 68.9161 69.2909C68.9161 69.2909 78.6827 88.22 84.907 108.061C81.7432 104.711 77.4176 99.8499 76.448 97.3587C74.8793 93.3264 55.421 97.3587 55.421 97.3587L55.3826 97.3688C54.7753 97.5353 48.2778 99.2855 43.6991 98.1018L43.44 98.0307L43.4036 98.0206L43.1809 97.9536L43.1 97.9272L42.9259 97.8683L42.8146 97.8277L42.6769 97.7769L42.5352 97.7181L42.434 97.6775L42.2539 97.5962L42.1972 97.5698L41.9948 97.4683L41.9644 97.4541C41.7394 97.3329 41.5223 97.1972 41.3147 97.048H41.3045C43.0698 98.4346 44.6967 99.9897 46.1625 101.691L46.2091 101.748L46.4641 102.061L46.5309 102.144C46.6146 102.25 46.6969 102.355 46.7779 102.461L46.8264 102.524C46.9196 102.648 47.0113 102.774 47.1017 102.9L47.1685 102.997C47.232 103.086 47.294 103.176 47.3547 103.267L47.46 103.425L47.5956 103.628L47.707 103.807L47.8203 104.01C47.8567 104.073 47.8952 104.136 47.9296 104.199L47.9438 104.225C48.0025 104.333 48.0612 104.439 48.1158 104.546L48.1725 104.662C48.2197 104.757 48.2643 104.851 48.3061 104.944L48.3527 105.048L48.3891 105.135C43.9359 105.08 37.5801 105.498 33.4609 107.904C26.5565 111.937 13.3752 109.456 13.3752 109.456C13.3752 109.456 26.2428 116.278 27.4977 119.999C27.9997 121.486 30.4469 123.611 33.2119 125.632L33.807 126.062C32.9951 126.705 32.2492 127.427 31.5805 128.218C25.3056 135.662 10.2397 143.105 10.2397 143.105H10.2843L10.4138 143.117L10.6365 143.137L11.0413 143.176H11.1101C14.3326 143.48 25.6841 144.652 32.1614 146.605C32.3942 146.676 32.6209 146.747 32.8395 146.818C34.722 147.438 45.3893 146.508 52.6115 144.337C52.8139 144.276 53.0163 144.222 53.2187 144.169L53.3989 144.124C53.55 144.088 53.7018 144.053 53.8543 144.021L54.0345 143.982C54.2369 143.941 54.4393 143.903 54.6417 143.87H54.6377C54.8401 143.836 55.0425 143.807 55.2449 143.781L55.4291 143.759L55.8724 143.71L56.0647 143.692C56.2482 143.675 56.4311 143.663 56.6133 143.653H56.672C56.8744 143.643 57.0626 143.635 57.259 143.631H57.4614H58.0686H58.4856L58.769 143.641L59.1738 143.661L59.4633 143.681L59.7143 143.702L60.0361 143.73L60.1879 143.746L60.5341 143.783L60.781 143.813L60.9672 143.838L61.2405 143.876L61.3923 143.899C61.3923 143.941 61.3761 143.988 61.368 144.033C61.368 144.033 61.6291 145.493 63.3416 146.92C60.4409 147.756 58.0342 148.719 56.2368 149.762C56.1295 149.821 56.0344 149.884 55.9291 149.945C56.002 149.945 56.0728 149.929 56.1497 149.923C56.2266 149.917 56.2853 149.923 56.3521 149.923H130.159C130.228 149.923 130.295 149.923 130.362 149.923C130.428 149.923 130.505 149.935 130.578 149.945C130.638 149.952 130.697 149.961 130.756 149.974C130.82 149.982 130.883 149.996 130.944 150.014C130.81 149.928 130.675 149.844 130.54 149.762C128.293 148.447 125.095 147.279 121.178 146.311C122.354 145.702 123.01 145.011 123.283 144.28C123.514 144.228 123.749 144.177 123.994 144.128C124.951 143.933 125.919 143.79 126.892 143.7L127.297 143.667L127.499 143.651C129.748 143.478 132.01 143.706 134.179 144.325C141.397 146.496 152.067 147.425 153.951 146.806C154.17 146.733 154.396 146.662 154.629 146.593C161.092 144.642 172.442 143.468 175.68 143.164H175.749L176.154 143.125L176.377 143.105L176.506 143.093H176.551C176.551 143.093 161.495 135.647 155.218 128.204ZM146.565 51.4968L146.462 51.5192C146.462 51.4867 146.476 51.4542 146.482 51.4217L146.565 51.4968ZM116.022 68.4199C115.579 68.6595 115.188 68.8991 114.861 69.1204C114.581 68.1476 114.166 67.2188 113.63 66.3611C115.225 66.2063 116.776 65.7437 118.196 64.9987C117.445 66.1682 116.721 67.3113 116.022 68.4199ZM117.387 74.1273C118.008 74.4212 118.652 74.6656 119.312 74.8582C117.76 75.758 116.4 76.9565 115.312 78.3849C115.949 76.9779 116.646 75.5566 117.387 74.1273ZM97.388 99.8296C97.9588 90.3702 98.3069 80.1351 97.8211 72.9293C99.7782 74.2157 102.028 74.9841 104.361 75.1627L104.371 75.1242C104.677 75.1567 104.851 75.1627 104.851 75.1627C105.428 73.3517 105.244 71.5325 104.616 69.8006C107.402 71.1969 110.597 71.5352 113.612 70.7528C113.757 71.012 113.918 71.2622 114.093 71.502C110.177 77.7961 107.511 82.3137 107.511 82.3137C104.796 86.4089 100.323 100.729 96.2564 115.112C96.6329 110.82 97.0499 105.46 97.388 99.8296ZM109.397 97.3485C108.648 99.2733 105.898 102.609 103.226 105.574C106.731 96.7191 110.245 89.219 112.207 85.1846C112.763 84.0415 113.298 82.8883 113.826 81.733C115.84 83.1543 118.279 83.3999 120.708 83.0487C120.105 85.0288 119.972 87.1232 120.32 89.1641C120.522 89.1763 120.724 89.1783 120.927 89.1743C120.951 89.3184 120.967 89.3956 120.967 89.3956C121.893 89.4528 122.822 89.3421 123.708 89.0687C122.627 91.2656 121.544 93.5355 120.482 95.8359C115.425 95.3324 110.183 95.3344 109.399 97.3465L109.397 97.3485ZM146.737 51.8359C146.701 51.7547 146.678 51.712 146.678 51.712C146.638 51.6207 146.607 51.5557 146.591 51.5212C146.698 51.6159 146.804 51.7066 146.909 51.7933L146.737 51.8359ZM132.746 50.3598C134.471 49.7669 135.999 48.6157 137.319 47.2391C138.222 49.9151 139.942 52.2379 142.235 53.8784C141.497 54.6332 140.851 55.4728 140.31 56.3798C140.203 56.5565 140.108 56.7372 139.997 56.9179C138.983 54.2959 137.188 52.0517 134.855 50.4918C132.752 52.4186 132.112 55.1941 132.181 58.0041C132.181 58.195 132.195 58.3858 132.206 58.5787C131.058 57.6392 129.763 56.8962 128.374 56.3798C129.87 54.2561 131.353 52.2338 132.752 50.3598H132.746Z" fill="url(#paint1_linear)"/>
<path d="M88.5149 112.225C88.5149 112.225 78.4548 102.134 76.9306 98.1607C75.4064 94.1873 56.5068 98.1607 56.5068 98.1607C56.5068 98.1607 47.058 100.912 42.7891 97.8542C42.7891 97.8542 49.4951 103.052 50.1044 107.332C50.7136 111.612 74.4915 122.621 74.4915 122.621L88.5149 135.767L93.3931 133.016L88.5149 112.225Z" fill="#FF8000"/>
<path d="M93.3927 133.018L88.5145 135.767L84.5937 132.1L74.4932 122.623C74.4932 122.623 50.7173 111.606 50.1061 107.342C49.9599 106.483 49.6602 105.658 49.2215 104.906C47.2985 101.405 43.0235 98.041 42.7988 97.8643C47.0698 100.91 56.5064 98.1648 56.5064 98.1648C56.5064 98.1648 75.406 94.1894 76.9302 98.1648C78.4544 102.14 88.5145 112.229 88.5145 112.229L93.3927 133.018Z" fill="#9347B2"/>
<path opacity="0.1" d="M86.9919 132.1H84.5953L74.4948 122.622C74.4948 122.622 50.719 111.606 50.1077 107.342C49.9615 106.483 49.6619 105.658 49.2231 104.905C51.1472 104.898 53.0703 104.995 54.9839 105.196C61.6899 111.922 71.1387 115.287 71.1387 115.287C80.5915 109.169 86.9919 132.1 86.9919 132.1Z" fill="black"/>
<path d="M86.6869 133.018H75.1026L43.7059 131.8C43.7059 131.8 38.9714 129.038 34.9291 126.04C32.2431 124.05 29.8687 121.952 29.3789 120.487C28.1644 116.818 15.6611 110.091 15.6611 110.091C15.6611 110.091 28.4639 112.527 35.17 108.562C41.876 104.597 54.6788 106.126 54.6788 106.126C61.3849 112.852 70.8337 116.217 70.8337 116.217C76.0742 112.826 80.3755 118.367 83.1709 123.975C84.5928 126.885 85.7689 129.91 86.6869 133.018Z" fill="#B247A7"/>
<path d="M97.3465 112.225C97.3465 112.225 107.407 102.134 108.931 98.1607C110.455 94.1873 129.355 98.1607 129.355 98.1607C129.355 98.1607 138.803 100.912 143.072 97.8542C143.072 97.8542 136.366 103.052 135.757 107.332C135.148 111.612 111.37 122.621 111.37 122.621L97.3465 135.767L92.4683 133.016L97.3465 112.225Z" fill="#FF8000"/>
<path d="M143.07 97.8623C142.846 98.0389 138.571 101.405 136.648 104.908C136.208 105.659 135.908 106.485 135.763 107.344C135.156 111.624 111.376 122.633 111.376 122.633L101.267 132.11L97.3465 135.767L92.4683 133.016L97.3465 112.225C97.3465 112.225 107.407 102.134 108.931 98.1607C110.455 94.1873 129.355 98.1607 129.355 98.1607C129.355 98.1607 138.799 100.91 143.07 97.8623Z" fill="#9347B2"/>
<path opacity="0.1" d="M87.4065 129.27C86.9814 129.666 86.2669 129.995 86.3944 130.563C86.4506 130.754 86.5654 130.922 86.7223 131.043C87.5158 131.749 88.8011 132.299 88.6939 133.359C88.6331 133.968 88.1028 134.401 87.8437 134.949C87.3033 136.094 88.1554 137.554 89.3558 137.948C90.5561 138.342 91.9001 137.879 92.8899 137.089C93.1025 136.918 93.3292 136.726 93.6004 136.726C93.8075 136.754 94.0085 136.817 94.1955 136.91C95.0052 137.191 95.9181 136.569 96.2642 135.775C96.6104 134.982 96.5476 134.076 96.4768 133.213C96.9362 133.605 97.6913 133.392 98.0819 132.927C98.4726 132.462 98.5859 131.834 98.6892 131.238L99.4118 127.053C99.9907 126.884 100.221 126.101 99.9563 125.559C99.6911 125.016 99.0738 124.72 98.4746 124.663C97.8755 124.606 97.2763 124.742 96.6852 124.856C95.1389 125.155 93.5657 125.291 91.9912 125.262C90.6856 125.236 89.0096 123.62 88.289 125.059C87.6312 126.346 88.6007 128.159 87.4065 129.27Z" fill="black"/>
<path opacity="0.1" d="M136.649 104.905C136.209 105.657 135.909 106.483 135.764 107.342C135.157 111.622 111.377 122.631 111.377 122.631L101.268 132.108H98.5762C98.5762 132.108 104.977 109.169 114.427 115.283C114.427 115.283 123.876 111.918 130.582 105.192C132.597 104.983 134.623 104.887 136.649 104.905Z" fill="black"/>
<path d="M170.216 110.085C170.216 110.085 157.719 116.812 156.499 120.481C156.041 121.857 153.916 123.788 151.438 125.666C147.299 128.803 142.174 131.794 142.174 131.794L110.777 133.012H99.1846C99.9971 130.25 101.012 127.551 102.221 124.939C104.992 119.033 109.492 112.621 115.036 116.201C115.036 116.201 124.485 112.836 131.191 106.11C131.191 106.11 143.993 104.581 150.699 108.546C157.406 112.511 170.216 110.085 170.216 110.085Z" fill="#B247A7"/>
<path d="M141.251 39.607C141.251 39.607 122.329 61.6567 114.263 80.4173C113.433 82.3482 112.577 84.275 111.67 86.1612C106.832 96.2602 92.2763 128.393 92.7844 148.493L87.2969 149.665C87.2969 149.665 101.318 92.1812 107.111 83.3146C107.111 83.3146 132.717 39.2842 141.253 35.0042L141.251 39.607Z" fill="#635151"/>
<path d="M97.2742 100.607C96.9423 106.162 96.5374 111.45 96.1792 115.667C96.1083 116.536 96.0354 117.358 95.9767 118.131C95.5982 122.367 95.3229 125.059 95.3229 125.059V125.075C95.2521 126.399 94.8412 128.411 94.1773 130.915C93.9587 131.743 93.7077 132.626 93.4364 133.554C93.3838 133.723 93.3352 133.893 93.2846 134.064C93.0525 134.846 92.8035 135.658 92.5377 136.5C92.4284 136.843 92.3191 137.191 92.2057 137.544C91.5985 139.448 90.9184 141.479 90.1816 143.594C89.5237 145.505 88.8254 147.484 88.1028 149.501L87.9833 149.828C87.9651 149.876 87.9469 149.929 87.9287 149.98H84.1172C84.1334 149.927 84.1475 149.876 84.1597 149.828C84.7426 147.757 85.279 145.728 85.779 143.759C86.279 141.789 86.7547 139.838 87.1777 138.007C87.3518 137.258 87.5191 136.527 87.6797 135.812C87.7323 135.58 87.7829 135.351 87.8315 135.124C87.8558 135.022 87.8781 134.921 87.8983 134.823C88.0076 134.338 88.1109 133.861 88.21 133.402C88.2505 133.231 88.287 133.059 88.3234 132.892L88.4145 132.464C88.6432 131.394 88.8537 130.379 89.046 129.43C89.2039 128.653 89.3476 127.924 89.4812 127.238C89.6695 126.263 89.8375 125.384 89.9771 124.623C90.382 122.452 90.5844 121.201 90.5844 121.201C90.5936 121.173 90.601 121.145 90.6066 121.116C90.8536 120.215 91.0823 119.289 91.2928 118.343C92.5296 112.844 93.2522 106.668 93.6469 100.605C94.6873 84.6873 93.483 69.5408 93.483 69.5408L96.1812 65.8374C98.4665 70.3062 98.1203 86.3461 97.2742 100.607Z" fill="#635151"/>
<path d="M134.63 76.596C134.63 76.596 129.057 85.6291 123.531 97.1453C122.991 98.2769 122.452 99.4274 121.912 100.597C119.811 105.141 117.938 109.787 116.301 114.519C116.145 114.974 115.993 115.431 115.847 115.884C115.572 116.73 115.311 117.575 115.066 118.409C114.969 118.736 114.874 119.063 114.785 119.388C114.611 120.005 114.446 120.618 114.291 121.225C114.066 122.115 113.862 122.996 113.684 123.865C113.684 123.865 112.538 127.4 110.985 133.002C110.888 133.363 110.783 133.728 110.684 134.106C110.613 134.366 110.54 134.632 110.467 134.902C109.913 136.973 109.315 139.267 108.712 141.732C108.51 142.577 108.307 143.438 108.093 144.323C107.676 146.093 107.257 147.937 106.852 149.829C106.852 149.882 106.83 149.931 106.822 149.981H102.998C102.998 149.929 103.014 149.878 103.02 149.829C103.283 147.811 103.549 145.84 103.83 143.941C104.022 142.581 104.221 141.253 104.419 139.978C104.767 137.734 105.123 135.637 105.478 133.747C105.526 133.499 105.573 133.255 105.617 133.016C105.617 133.016 105.617 132.997 105.617 132.987C106.01 130.825 106.523 128.687 107.154 126.582C107.31 126.085 107.494 125.597 107.702 125.12C107.702 125.12 108.218 123.792 109.119 121.558L109.577 120.411C110.184 118.929 110.896 117.153 111.716 115.165C111.829 114.887 111.947 114.602 112.066 114.314C113.734 110.288 115.764 105.496 117.936 100.603C118.519 99.2914 119.11 97.9636 119.71 96.6621C124.849 85.4098 130.452 74.5494 133.923 72.0642L134.63 76.596Z" fill="#635151"/>
<path d="M41.5734 27.0716C41.5734 27.0716 60.6248 51.6857 69.6161 70.4889C69.6161 70.4889 90.6492 111.868 90.0399 135.972L95.5254 137.146C95.5254 137.146 89.4286 108.087 83.178 87.7653C79.9697 77.3292 73.7879 67.3662 68.0535 58.0834C59.7989 44.7236 47.1014 25.2605 41.5693 22.4871L41.5734 27.0716Z" fill="#635151"/>
<path d="M129.87 150.081C129.81 150.063 129.749 150.049 129.688 150.041C129.63 150.028 129.572 150.019 129.513 150.012C129.443 150.012 129.374 149.994 129.311 149.99C129.248 149.986 129.179 149.99 129.109 149.99H57.4311C57.3643 149.99 57.2975 149.99 57.2286 149.99C57.1598 149.99 57.0849 150.002 57.0161 150.012C57.1133 149.951 57.2185 149.89 57.3157 149.832C59.0625 148.794 61.4004 147.848 64.2161 147.022C69.821 145.377 77.3205 144.205 85.7774 143.763C86.7713 143.708 87.7793 143.667 88.7975 143.635L90.184 143.598C91.0888 143.58 92.0057 143.568 92.9267 143.568C93.0826 143.568 93.2344 143.568 93.3903 143.568C96.9994 143.568 100.495 143.7 103.819 143.943C105.276 144.05 106.696 144.179 108.08 144.329C112.22 144.748 116.326 145.451 120.37 146.433C124.174 147.387 127.281 148.54 129.463 149.836C129.603 149.914 129.739 149.996 129.87 150.081Z" fill="#635151"/>
<path opacity="0.1" d="M86.688 133.018H75.1037L43.7069 131.8C43.7069 131.8 38.9724 129.039 34.9302 126.04C41.3468 120.343 51.8542 120.456 54.3743 121.863C57.119 123.382 62.3009 122.773 62.3009 122.773C66.1083 114.134 76.4983 119.36 83.1781 123.959C84.5987 126.875 85.7728 129.905 86.688 133.018Z" fill="black"/>
<path d="M89.1245 129.501C89.1245 129.501 68.0914 110.544 62.3003 123.692C62.3003 123.692 57.1184 124.302 54.3757 122.775C51.633 121.248 39.4394 121.246 33.3426 128.584C27.2459 135.921 12.6152 143.261 12.6152 143.261C12.6152 143.261 27.4038 144.536 34.5632 146.93C36.385 147.539 46.7568 146.623 53.7664 144.494C60.7761 142.364 68.4011 145.716 68.4011 145.716L90.0394 136.839L89.1245 129.501Z" fill="#FF8000"/>
<path d="M90.0403 136.839L68.402 145.716C66.1901 144.817 63.8679 144.221 61.4976 143.944C59.1253 143.661 56.4048 143.69 53.7693 144.494C46.7576 146.634 36.3939 147.552 34.5661 146.93C27.4067 144.536 12.6182 143.261 12.6182 143.261C12.6182 143.261 27.2508 135.924 33.3456 128.584C39.4403 121.244 51.6318 121.246 54.3766 122.773C57.1213 124.3 62.3012 123.691 62.3012 123.691C68.0923 110.542 89.1253 129.5 89.1253 129.5L89.5646 133.034L90.0403 136.839Z" fill="#9347B2"/>
<path opacity="0.1" d="M151.428 125.668C147.289 128.805 142.164 131.796 142.164 131.796L110.767 133.014H99.1846C99.9971 130.252 101.012 127.553 102.221 124.941C108.745 120.186 120.4 113.502 124.487 122.771C124.487 122.771 129.668 123.38 132.411 121.853C134.877 120.48 144.985 120.336 151.428 125.668Z" fill="black"/>
<path d="M97.6612 129.501C97.6612 129.501 118.694 110.544 124.485 123.692C124.485 123.692 129.667 124.302 132.41 122.775C135.153 121.248 147.346 121.246 153.443 128.584C159.54 135.921 174.17 143.261 174.17 143.261C174.17 143.261 159.386 144.536 152.225 146.934C150.403 147.543 140.031 146.627 133.021 144.498C126.012 142.368 118.399 145.716 118.399 145.716L96.7402 136.839L97.6612 129.501Z" fill="#FF8000"/>
<path d="M174.172 143.261C174.172 143.261 159.386 144.536 152.224 146.934C150.403 147.543 140.031 146.627 133.021 144.498C129.528 143.43 125.886 143.73 123.103 144.295C121.493 144.616 119.918 145.092 118.399 145.716L96.7402 136.839L97.2928 132.415L97.6552 129.501C97.6552 129.501 118.688 110.544 124.479 123.692C124.479 123.692 129.661 124.302 132.404 122.775C135.147 121.248 147.34 121.246 153.437 128.584C159.534 135.921 174.172 143.261 174.172 143.261Z" fill="#9347B2"/>
<path opacity="0.1" d="M123.109 144.294C121.497 144.615 119.92 145.091 118.399 145.716L96.7402 136.839L97.2928 132.415C104.035 131.562 116.86 135.921 116.86 135.921C116.86 135.921 125.358 140.676 123.109 144.294Z" fill="black"/>
<path opacity="0.1" d="M90.0386 136.839L68.4004 145.716C66.1885 144.817 63.8662 144.221 61.496 143.943C61.4509 143.824 61.415 143.701 61.3887 143.576C63.5889 131.071 82.2598 132.135 89.567 133.046L90.0386 136.839Z" fill="black"/>
<path d="M122.419 144.435C122.153 145.147 121.516 145.826 120.374 146.429C119.739 146.759 119.075 147.031 118.391 147.241C115.781 148.063 114.012 148.958 112.828 149.84C112.757 149.892 112.695 149.941 112.626 149.992H73.1546C73.1242 149.931 73.0939 149.882 73.0716 149.84C73.0129 149.738 72.9765 149.687 72.9765 149.687C68.3553 149.543 65.7178 148.299 64.224 147.03C62.5601 145.623 62.3071 144.187 62.3071 144.187C62.3071 144.144 62.3233 144.098 62.3314 144.055C64.2362 133.836 77.2434 132.789 85.8117 133.243C86.6618 133.29 87.4675 133.347 88.2144 133.414L88.6779 133.457L89.6313 133.558L90.0361 133.605C90.5118 133.66 90.945 133.719 91.3316 133.773C91.5482 133.802 91.7364 133.832 91.9388 133.857C92.621 133.96 93.0906 134.043 93.293 134.08L93.4064 134.102C93.547 133.99 93.6958 133.889 93.8517 133.8C94.0465 133.687 94.2494 133.588 94.4589 133.505C94.548 133.469 94.6391 133.438 94.7302 133.408C95.5439 133.148 96.3888 132.999 97.2421 132.965C97.5194 132.947 97.8028 132.937 98.0963 132.935C98.4587 132.935 98.8331 132.935 99.2177 132.951C99.6023 132.967 99.9464 132.988 100.321 133.018C100.388 133.018 100.454 133.018 100.523 133.034C102.187 133.19 103.842 133.434 105.48 133.765C107.235 134.11 108.952 134.523 110.47 134.925C113.65 135.765 115.964 136.549 115.964 136.549C115.964 136.549 123.742 140.894 122.419 144.435Z" fill="#B247A7"/>
<path d="M94.8727 63.0585C99.4375 61.8956 102.533 58.5644 101.787 55.6179C101.041 52.6715 96.736 51.2257 92.1712 52.3886C87.6063 53.5514 84.5105 56.8827 85.2565 59.8291C86.0025 62.7755 90.3078 64.2213 94.8727 63.0585Z" fill="#FF8000"/>
<path d="M99.9949 54.0265C99.9949 54.0265 112.213 47.04 118.123 52.6458C118.123 52.6458 112.786 62.9763 99.6123 57.7015L99.9949 54.0265Z" fill="#9347B2"/>
<path opacity="0.05" d="M98.0703 54.0532C98.0703 54.0532 105.394 42.0091 113.27 44.0476C113.27 44.0476 113.579 55.6775 99.5054 57.448L98.0703 54.0532Z" fill="black"/>
<path d="M99.0294 56.9769L98.827 56.4977L97.5923 53.576C97.5923 53.576 100.788 48.3113 105.242 45.3348C107.521 43.8059 110.126 42.878 112.794 43.5704C112.792 43.5704 113.103 55.2003 99.0294 56.9769Z" fill="#B247A7"/>
<path opacity="0.05" d="M105.241 45.3345C105.066 48.6338 103.569 52.6336 98.8503 56.5137L98.828 56.4994L97.5933 53.5778C97.5933 53.5778 100.787 48.311 105.241 45.3345Z" fill="black"/>
<path d="M98.3711 56.5116L97.691 56.0344L95.3491 54.4C95.3491 54.4 95.2661 48.3089 97.4117 43.4198C98.529 40.8758 100.246 38.6627 102.905 37.814C102.905 37.814 109.342 47.4927 98.3711 56.5116Z" fill="#9347B2"/>
<path opacity="0.05" d="M97.7821 56.0407H97.691L95.3491 54.4062C95.3491 54.4062 95.2661 48.3151 97.4117 43.426C98.9197 46.301 99.6666 50.4105 97.7821 56.0407Z" fill="black"/>
<path d="M93.6233 55.8622C93.6233 55.8622 85.9882 44.0151 91.2389 37.792C91.2389 37.792 101.819 42.5634 97.3113 56.049L93.6233 55.8622Z" fill="#FF8000"/>
<path opacity="0.05" d="M91.802 56.5017C91.802 56.5017 80.8958 47.5924 83.9867 40.0415C83.9867 40.0415 95.5244 41.3085 95.3645 55.5352L91.802 56.5017Z" fill="black"/>
<path d="M91.3259 56.5017C91.3259 56.5017 80.4217 47.5904 83.5025 40.0415C83.5025 40.0415 95.0402 41.3085 94.8803 55.5352L91.3259 56.5017Z" fill="#9347B2"/>
<path opacity="0.05" d="M90.0963 58.0344C90.0963 58.0344 76.4373 54.6681 75.998 46.5223C75.998 46.5223 86.9589 42.7133 92.8957 55.6345L90.0963 58.0344Z" fill="black"/>
<path d="M89.8576 58.5117C89.8576 58.5117 76.1985 55.1454 75.7593 46.9996C75.7593 46.9996 86.7201 43.1906 92.657 56.1118L89.8576 58.5117Z" fill="#FF8000"/>
<path opacity="0.05" d="M89.1489 60.8466C89.1489 60.8466 75.3501 63.5774 71.5225 56.3798C71.5225 56.3798 79.8559 48.2868 90.6751 57.4843L89.1489 60.8466Z" fill="black"/>
<path d="M88.9096 61.3178C88.9096 61.3178 75.1109 64.0487 71.2832 56.851C71.2832 56.851 79.6167 48.758 90.4358 57.9555L88.9096 61.3178Z" fill="#9347B2"/>
<path opacity="0.05" d="M91.1643 60.3737C91.1643 60.3737 81.1082 70.2372 73.9751 66.3145C73.9751 66.3145 76.5316 54.9648 90.6056 56.721L91.1643 60.3737Z" fill="black"/>
<path d="M91.6423 60.8466C91.6423 60.8466 81.5863 70.7101 74.4531 66.7874C74.4531 66.7874 77.0096 55.4377 91.0836 57.1939L91.6423 60.8466Z" fill="#FF8000"/>
<path opacity="0.05" d="M90.8039 59.2791C90.8039 59.2791 92.4637 73.2886 85.0148 76.5656C85.0148 76.5656 77.6063 67.6117 87.5794 57.4944L90.8039 59.2791Z" fill="black"/>
<path d="M91.5197 59.5171C91.5197 59.5171 93.1795 73.5266 85.7306 76.8036C85.7306 76.8036 78.3222 67.8497 88.2952 57.7324L91.5197 59.5171Z" fill="#9347B2"/>
<path opacity="0.05" d="M96.1725 60.2495C96.1725 60.2495 97.8323 74.259 90.3834 77.5361C90.3834 77.5361 82.975 68.5821 92.948 58.4648L96.1725 60.2495Z" fill="black"/>
<path d="M96.6505 60.2495C96.6505 60.2495 98.3103 74.259 90.8614 77.5361C90.8614 77.5361 83.453 68.5821 93.426 58.4648L96.6505 60.2495Z" fill="#FF8000"/>
<path opacity="0.05" d="M94.8872 60.5322C94.8872 60.5322 106.492 68.5014 104.046 76.2777C104.046 76.2777 92.4501 75.9752 91.4238 61.785L94.8872 60.5322Z" fill="black"/>
<path d="M95.3632 60.5322C95.3632 60.5322 106.97 68.5014 104.524 76.2777C104.524 76.2777 92.9281 75.9752 91.9019 61.785L95.3632 60.5322Z" fill="#9347B2"/>
<path opacity="0.05" d="M98.055 58.6782C98.055 58.6782 112.396 62.1501 114.001 71.6076C114.001 71.6076 103.419 76.3891 95.5552 61.5593L98.055 58.6782Z" fill="black"/>
<path d="M98.533 58.4387C98.533 58.4387 112.874 61.9106 114.479 71.3681C114.479 71.3681 103.897 76.1496 96.0332 61.3198L98.533 58.4387Z" fill="#FF8000"/>
<path d="M93.6233 55.8622C93.6233 55.8622 85.9882 44.0151 91.2389 37.792C91.2389 37.792 101.819 42.5634 97.3113 56.049L93.6233 55.8622Z" fill="#FF8000"/>
<path d="M93.6233 55.8622C93.6233 55.8622 85.9882 44.0151 91.2389 37.792C91.2389 37.792 101.819 42.5634 97.3113 56.049L93.6233 55.8622Z" fill="#B247A7"/>
<path d="M89.8576 58.5117C89.8576 58.5117 76.1985 55.1454 75.7593 46.9996C75.7593 46.9996 86.7201 43.1906 92.657 56.1118L89.8576 58.5117Z" fill="#FF8000"/>
<path d="M89.8576 58.5117C89.8576 58.5117 76.1985 55.1454 75.7593 46.9996C75.7593 46.9996 86.7201 43.1906 92.657 56.1118L89.8576 58.5117Z" fill="#B247A7"/>
<path d="M91.6423 60.8466C91.6423 60.8466 81.5863 70.7101 74.4531 66.7874C74.4531 66.7874 77.0096 55.4377 91.0836 57.1939L91.6423 60.8466Z" fill="#FF8000"/>
<path d="M91.6423 60.8466C91.6423 60.8466 81.5863 70.7101 74.4531 66.7874C74.4531 66.7874 77.0096 55.4377 91.0836 57.1939L91.6423 60.8466Z" fill="#B247A7"/>
<path d="M96.6505 60.2495C96.6505 60.2495 98.3103 74.259 90.8614 77.5361C90.8614 77.5361 83.453 68.5821 93.426 58.4648L96.6505 60.2495Z" fill="#FF8000"/>
<path d="M96.6505 60.2495C96.6505 60.2495 98.3103 74.259 90.8614 77.5361C90.8614 77.5361 83.453 68.5821 93.426 58.4648L96.6505 60.2495Z" fill="#B247A7"/>
<path d="M98.533 58.4387C98.533 58.4387 112.874 61.9106 114.479 71.3681C114.479 71.3681 103.897 76.1496 96.0332 61.3198L98.533 58.4387Z" fill="#FF8000"/>
<path d="M98.533 58.4387C98.533 58.4387 112.874 61.9106 114.479 71.3681C114.479 71.3681 103.897 76.1496 96.0332 61.3198L98.533 58.4387Z" fill="#B247A7"/>
<path opacity="0.05" d="M99.9067 56.4043C99.9067 56.4043 114.649 56.9444 118.1 65.8922C118.1 65.8922 108.679 72.6919 98.0303 59.728L99.9067 56.4043Z" fill="black"/>
<path opacity="0.05" d="M100.145 55.2083C100.145 55.2083 114.887 55.7483 118.339 64.6961C118.339 64.6961 108.918 71.4958 98.269 58.532L100.145 55.2083Z" fill="black"/>
<path d="M100.145 55.927C100.145 55.927 114.887 56.4671 118.339 65.4149C118.339 65.4149 108.918 72.2146 98.269 59.2507L100.145 55.927Z" fill="#9347B2"/>
<path d="M103.796 59.7482C103.38 61.418 102.479 62.9264 101.209 64.0829C99.9378 65.2394 98.3537 65.9921 96.6565 66.2457C94.9593 66.4993 93.2253 66.2426 91.6736 65.5078C90.1219 64.7731 88.8222 63.5935 87.9387 62.118C87.0553 60.6425 86.6278 58.9374 86.7102 57.2182C86.7927 55.499 87.3815 53.843 88.4021 52.4594C89.4227 51.0758 90.8293 50.0267 92.4441 49.4449C94.059 48.863 95.8096 48.7744 97.4747 49.1903C98.581 49.4669 99.6222 49.9595 100.539 50.6399C101.455 51.3203 102.229 52.1751 102.816 53.1556C103.403 54.136 103.792 55.2229 103.96 56.3541C104.128 57.4853 104.072 58.6386 103.796 59.7482Z" fill="#9347B2"/>
<path d="M99.2039 56.4001C99.376 55.2407 98.4975 54.6194 97.2951 54.2032L97.6858 52.6337L96.7405 52.3962L96.36 53.925C96.109 53.8621 95.8519 53.8032 95.5969 53.7443L95.9794 52.2053L95.0281 51.9678L94.6293 53.5372C94.4269 53.4906 94.2245 53.4439 94.0221 53.3931L92.7084 53.0642L92.4554 54.0794C92.4554 54.0794 93.1618 54.2418 93.1476 54.2519C93.2795 54.2677 93.3999 54.3349 93.4829 54.439C93.5658 54.5431 93.6046 54.6757 93.5909 54.8083L93.1456 56.597C93.1793 56.6056 93.2125 56.6165 93.2448 56.6295L93.1436 56.6051L92.5201 59.1106C92.5066 59.1545 92.4844 59.1952 92.455 59.2305C92.4256 59.2657 92.3896 59.2948 92.3489 59.3159C92.3082 59.3371 92.2638 59.3499 92.2181 59.3537C92.1725 59.3575 92.1265 59.3522 92.0829 59.338C92.0829 59.3522 91.3907 59.1654 91.3907 59.1654L90.917 60.2598L92.1558 60.5704L92.8339 60.7471L92.4392 62.3348L93.3905 62.5724L93.7812 61.0009C94.0403 61.0719 94.2933 61.1369 94.5403 61.2039L94.1516 62.7673L95.105 63.0048L95.4997 61.4212C97.119 61.7298 98.3457 61.6059 98.8598 60.1319C99.2646 58.9461 98.8396 58.2619 97.9854 57.8152C98.6088 57.6589 99.0784 57.2488 99.2039 56.4001ZM97.0279 59.4619C96.7344 60.6476 94.7427 60.006 94.097 59.8456L94.6192 57.7421C95.2629 57.9046 97.3336 58.2254 97.0259 59.4619H97.0279ZM97.3215 56.3798C97.0522 57.4599 95.3944 56.9097 94.858 56.7858L95.3317 54.8773C95.8701 55.0072 97.6008 55.259 97.3215 56.3798Z" fill="white"/>
<path d="M42.8512 27.8673C47.4161 26.7044 50.5119 23.3732 49.7658 20.4268C49.0198 17.4804 44.7145 16.0345 40.1497 17.1974C35.5848 18.3603 32.489 21.6915 33.235 24.6379C33.9811 27.5844 38.2864 29.0302 42.8512 27.8673Z" fill="#FF8000"/>
<path d="M47.9724 18.8407C47.9724 18.8407 60.1902 11.8542 66.1008 17.4601C66.1008 17.4601 60.7631 27.7905 47.5898 22.5157L47.9724 18.8407Z" fill="#9347B2"/>
<path opacity="0.05" d="M46.0464 18.865C46.0464 18.865 53.3698 6.82083 61.2458 8.85932C61.2458 8.85932 61.5555 20.4893 47.4815 22.2597L46.0464 18.865Z" fill="black"/>
<path d="M47.005 21.7884L46.8026 21.3093L45.5679 18.3876C45.5679 18.3876 48.766 13.133 53.2192 10.1463C55.4984 8.61744 58.1035 7.68957 60.7713 8.38192C60.7673 8.38192 61.079 20.0139 47.005 21.7884Z" fill="#B247A7"/>
<path opacity="0.05" d="M53.2196 10.1462C53.0455 13.4456 51.5476 17.4454 46.8293 21.3254L46.807 21.3112L45.5723 18.3895C45.5723 18.3895 48.7664 13.1329 53.2196 10.1462Z" fill="black"/>
<path d="M46.3371 21.3258L45.6671 20.8487L43.3251 19.2142C43.3251 19.2142 43.2421 13.1231 45.3878 8.23401C46.5051 5.68996 48.2216 3.47687 50.8813 2.62817C50.8813 2.62817 57.3181 12.3049 46.3371 21.3258Z" fill="#9347B2"/>
<path opacity="0.05" d="M45.7582 20.8483H45.6671L43.3251 19.2139C43.3251 19.2139 43.2421 13.1228 45.3878 8.23364C46.8958 11.1127 47.6427 15.2242 45.7582 20.8483Z" fill="black"/>
<path d="M41.6014 20.674C41.6014 20.674 33.9662 8.82683 39.2169 2.60376C39.2169 2.60376 49.7972 7.37512 45.2894 20.8608L41.6014 20.674Z" fill="#FF8000"/>
<path opacity="0.05" d="M39.78 21.3154C39.78 21.3154 28.8758 12.4041 31.9566 4.85522C31.9566 4.85522 43.4943 6.12217 43.3344 20.3489L39.78 21.3154Z" fill="black"/>
<path d="M39.302 21.3154C39.302 21.3154 28.3978 12.4041 31.4786 4.85522C31.4786 4.85522 43.0163 6.12217 42.8564 20.3489L39.302 21.3154Z" fill="#9347B2"/>
<path opacity="0.05" d="M38.0724 22.8465C38.0724 22.8465 24.4134 19.4801 23.9741 11.3343C23.9741 11.3343 34.935 7.52532 40.8718 20.4466L38.0724 22.8465Z" fill="black"/>
<path d="M37.8366 23.3257C37.8366 23.3257 24.1775 19.9594 23.7383 11.8135C23.7383 11.8135 34.6991 8.00457 40.636 20.9258L37.8366 23.3257Z" fill="#FF8000"/>
<path opacity="0.05" d="M37.1269 25.6503C37.1269 25.6503 23.3282 28.3811 19.5005 21.1835C19.5005 21.1835 27.834 13.0905 38.6531 22.288L37.1269 25.6503Z" fill="black"/>
<path d="M36.8881 26.1276C36.8881 26.1276 23.0894 28.8584 19.2617 21.6608C19.2617 21.6608 27.5952 13.5678 38.4143 22.7653L36.8881 26.1276Z" fill="#9347B2"/>
<path opacity="0.05" d="M39.1423 25.1852C39.1423 25.1852 29.0863 35.0487 21.9531 31.126C21.9531 31.126 24.5096 19.7763 38.5836 21.5326L39.1423 25.1852Z" fill="black"/>
<path d="M39.6203 25.6645C39.6203 25.6645 29.5643 35.528 22.4312 31.6094C22.4312 31.6094 24.9877 20.2597 39.0617 22.016L39.6203 25.6645Z" fill="#FF8000"/>
<path opacity="0.05" d="M38.7819 24.0969C38.7819 24.0969 40.4417 38.1065 32.9928 41.3835C32.9928 41.3835 25.5844 32.4296 35.5574 22.3123L38.7819 24.0969Z" fill="black"/>
<path d="M39.4958 24.3306C39.4958 24.3306 41.1556 38.3401 33.7067 41.6171C33.7067 41.6171 26.2982 32.6632 36.2713 22.5459L39.4958 24.3306Z" fill="#9347B2"/>
<path opacity="0.05" d="M44.1505 25.0613C44.1505 25.0613 45.8103 39.0708 38.3614 42.3478C38.3614 42.3478 30.953 33.3939 40.9261 23.2766L44.1505 25.0613Z" fill="black"/>
<path d="M44.6286 25.0613C44.6286 25.0613 46.2884 39.0708 38.8395 42.3478C38.8395 42.3478 31.431 33.3939 41.4041 23.2766L44.6286 25.0613Z" fill="#FF8000"/>
<path opacity="0.05" d="M42.8652 25.3438C42.8652 25.3438 54.4697 33.315 52.0245 41.0953C52.0245 41.0953 40.4281 40.7928 39.4019 26.6026L42.8652 25.3438Z" fill="black"/>
<path d="M43.3398 25.3438C43.3398 25.3438 54.9443 33.315 52.4991 41.0953C52.4991 41.0953 40.9027 40.7928 39.8765 26.6026L43.3398 25.3438Z" fill="#9347B2"/>
<path opacity="0.05" d="M46.033 23.488C46.033 23.488 60.3742 26.96 61.9794 36.4174C61.9794 36.4174 51.3971 41.1989 43.5332 26.3691L46.033 23.488Z" fill="black"/>
<path d="M46.5111 23.2524C46.5111 23.2524 60.8523 26.7244 62.4574 36.1818C62.4574 36.1818 51.8751 40.9633 44.0112 26.1335L46.5111 23.2524Z" fill="#FF8000"/>
<path d="M41.6014 20.674C41.6014 20.674 33.9662 8.82683 39.2169 2.60376C39.2169 2.60376 49.7972 7.37512 45.2894 20.8608L41.6014 20.674Z" fill="#FF8000"/>
<path d="M41.6014 20.674C41.6014 20.674 33.9662 8.82683 39.2169 2.60376C39.2169 2.60376 49.7972 7.37512 45.2894 20.8608L41.6014 20.674Z" fill="#B247A7"/>
<path d="M37.8366 23.3257C37.8366 23.3257 24.1775 19.9594 23.7383 11.8135C23.7383 11.8135 34.6991 8.00457 40.636 20.9258L37.8366 23.3257Z" fill="#FF8000"/>
<path d="M37.8366 23.3257C37.8366 23.3257 24.1775 19.9594 23.7383 11.8135C23.7383 11.8135 34.6991 8.00457 40.636 20.9258L37.8366 23.3257Z" fill="#B247A7"/>
<path d="M39.6203 25.6645C39.6203 25.6645 29.5643 35.528 22.4312 31.6094C22.4312 31.6094 24.9877 20.2597 39.0617 22.016L39.6203 25.6645Z" fill="#FF8000"/>
<path d="M39.6203 25.6645C39.6203 25.6645 29.5643 35.528 22.4312 31.6094C22.4312 31.6094 24.9877 20.2597 39.0617 22.016L39.6203 25.6645Z" fill="#B247A7"/>
<path d="M44.6286 25.0613C44.6286 25.0613 46.2884 39.0708 38.8395 42.3478C38.8395 42.3478 31.431 33.3939 41.4041 23.2766L44.6286 25.0613Z" fill="#FF8000"/>
<path d="M44.6286 25.0613C44.6286 25.0613 46.2884 39.0708 38.8395 42.3478C38.8395 42.3478 31.431 33.3939 41.4041 23.2766L44.6286 25.0613Z" fill="#B247A7"/>
<path d="M46.5111 23.2524C46.5111 23.2524 60.8523 26.7244 62.4574 36.1818C62.4574 36.1818 51.8751 40.9633 44.0112 26.1335L46.5111 23.2524Z" fill="#FF8000"/>
<path d="M46.5111 23.2524C46.5111 23.2524 60.8523 26.7244 62.4574 36.1818C62.4574 36.1818 51.8751 40.9633 44.0112 26.1335L46.5111 23.2524Z" fill="#B247A7"/>
<path opacity="0.05" d="M47.8847 21.218C47.8847 21.218 62.6267 21.7581 66.0779 30.7059C66.0779 30.7059 56.6574 37.5056 46.0083 24.5417L47.8847 21.218Z" fill="black"/>
<path opacity="0.05" d="M48.1235 20.02C48.1235 20.02 62.8654 20.5601 66.3166 29.5079C66.3166 29.5079 56.8962 36.3076 46.2471 23.3437L48.1235 20.02Z" fill="black"/>
<path d="M48.1235 20.7385C48.1235 20.7385 62.8654 21.2786 66.3166 30.2264C66.3166 30.2264 56.8962 37.0261 46.2471 24.0622L48.1235 20.7385Z" fill="#9347B2"/>
<path d="M51.7741 24.56C51.3579 26.2297 50.4574 27.7382 49.1866 28.8947C47.9158 30.0512 46.3317 30.8038 44.6345 31.0575C42.9373 31.3111 41.2033 31.0543 39.6516 30.3196C38.0999 29.5849 36.8002 28.4052 35.9167 26.9297C35.0333 25.4542 34.6058 23.7491 34.6883 22.03C34.7707 20.3108 35.3595 18.6548 36.3801 17.2711C37.4007 15.8875 38.8073 14.8385 40.4222 14.2566C42.037 13.6748 43.7876 13.5862 45.4527 14.0021C46.559 14.2787 47.6002 14.7713 48.5167 15.4517C49.4332 16.132 50.2071 16.9869 50.7942 17.9673C51.3812 18.9478 51.7699 20.0347 51.938 21.1659C52.1062 22.2971 52.0505 23.4504 51.7741 24.56Z" fill="#9347B2"/>
<path d="M47.1795 21.214C47.3515 20.0547 46.473 19.4334 45.2707 19.0172L45.6614 17.4477L44.708 17.2101L44.3274 18.739C44.0764 18.6761 43.8194 18.6172 43.5643 18.5583L43.9469 17.0193L42.9955 16.7817L42.6049 18.3512C42.4025 18.3045 42.2 18.2578 41.9976 18.2071L40.684 17.8781L40.4309 18.8933C40.4309 18.8933 41.1374 19.0557 41.1232 19.0659C41.2551 19.0817 41.3755 19.1489 41.4584 19.253C41.5414 19.3571 41.5802 19.4897 41.5665 19.6222L41.1212 21.411C41.1549 21.4196 41.188 21.4304 41.2204 21.4435L41.1192 21.4191L40.4957 23.9246C40.4821 23.9684 40.46 24.0092 40.4306 24.0444C40.4012 24.0797 40.3651 24.1087 40.3245 24.1299C40.2838 24.151 40.2393 24.1639 40.1937 24.1677C40.148 24.1715 40.1021 24.1661 40.0585 24.152C40.0585 24.1662 39.3662 23.9794 39.3662 23.9794L38.8926 25.0737L40.1314 25.3844L40.8095 25.561L40.4188 27.1427L41.3701 27.3802L41.7608 25.8087C42.0199 25.8798 42.2729 25.9448 42.5199 26.0118L42.1312 27.5752L43.0846 27.8127L43.4793 26.229C45.0986 26.5376 46.3253 26.4138 46.8394 24.9397C47.2443 23.754 46.8192 23.0698 45.965 22.6231C46.5844 22.4728 47.054 22.0668 47.1795 21.214ZM45.0015 24.2758C44.708 25.4615 42.7162 24.82 42.0705 24.6596L42.5927 22.5561C43.2384 22.7185 45.3092 23.0373 45.0015 24.2758ZM45.297 21.1978C45.0278 22.2779 43.37 21.7277 42.8336 21.6039L43.3073 19.6953C43.8457 19.8192 45.5763 20.0709 45.297 21.1958V21.1978Z" fill="white"/>
<path d="M145.517 39.8847C149.108 36.8285 150.43 32.4717 148.47 30.1536C146.509 27.8354 142.008 28.4338 138.417 31.49C134.826 34.5462 133.503 38.9029 135.464 41.221C137.425 43.5392 141.925 42.9408 145.517 39.8847Z" fill="#FF8000"/>
<path d="M146.169 29.5344C146.169 29.5344 154.087 17.874 161.85 20.3084C161.85 20.3084 161.577 31.9404 147.434 33.0043L146.169 29.5344Z" fill="#B247A7"/>
<path opacity="0.05" d="M144.453 30.4053C144.453 30.4053 145.758 16.3572 153.727 14.7207C153.727 14.7207 159.097 25.0329 147.234 32.8275L144.453 30.4053Z" fill="black"/>
<path d="M146.598 32.6102L146.205 32.2691L143.816 30.188C143.816 30.188 144.389 24.0482 147.077 19.4149C148.456 17.0373 150.391 15.0557 153.091 14.5034C153.091 14.5014 158.461 24.8136 146.598 32.6102Z" fill="#9347B2"/>
<path opacity="0.05" d="M147.077 19.415C148.365 22.4606 148.77 26.7081 146.231 32.2733H146.205L143.816 30.1882C143.816 30.1882 144.389 24.0463 147.077 19.415Z" fill="black"/>
<path d="M145.802 32.4825L144.993 32.3546L142.173 31.9181C142.173 31.9181 139.428 26.4747 139.218 21.145C139.106 18.3674 139.687 15.6203 141.699 13.6895C141.689 13.6874 151.709 19.5471 145.802 32.4825Z" fill="#B247A7"/>
<path opacity="0.05" d="M145.065 32.3181L144.982 32.3547L142.162 31.9181C142.162 31.9181 139.418 26.4747 139.207 21.145C141.822 23.0678 144.294 26.4301 145.065 32.3181Z" fill="black"/>
<path d="M141.253 33.9888C141.253 33.9888 129.205 26.7079 131.195 18.7976C131.195 18.7976 142.789 18.422 144.635 32.529L141.253 33.9888Z" fill="#FF8000"/>
<path opacity="0.05" d="M139.895 35.3676C139.895 35.3676 126.198 32.1678 125.659 24.026C125.659 24.026 136.573 20.0851 142.662 32.9332L139.895 35.3676Z" fill="black"/>
<path d="M139.466 35.5766C139.466 35.5766 125.769 32.3768 125.23 24.235C125.23 24.235 136.145 20.2941 142.233 33.1422L139.466 35.5766Z" fill="#B247A7"/>
<path opacity="0.05" d="M139.033 37.4973C139.033 37.4973 125.289 40.49 121.326 33.3655C121.326 33.3655 129.505 25.1161 140.497 34.1066L139.033 37.4973Z" fill="black"/>
<path d="M139.029 38.0295C139.029 38.0295 125.285 41.0223 121.321 33.8977C121.321 33.8977 129.501 25.6483 140.492 34.6388L139.029 38.0295Z" fill="#FF8000"/>
<path opacity="0.05" d="M139.409 40.4316C139.409 40.4316 128.21 48.9591 121.619 44.1837C121.619 44.1837 125.562 33.2421 139.31 36.7384L139.409 40.4316Z" fill="black"/>
<path d="M139.406 40.9672C139.406 40.9672 128.206 49.4948 121.615 44.7194C121.615 44.7194 125.558 33.7777 139.306 37.274L139.406 40.9672Z" fill="#B247A7"/>
<path opacity="0.05" d="M141.017 39.1218C141.017 39.1218 136.301 52.4126 128.176 52.0309C128.176 52.0309 125.504 40.7096 138.918 36.0864L141.017 39.1218Z" fill="black"/>
<path d="M141.655 39.3452C141.655 39.3452 136.939 52.636 128.814 52.2543C128.814 52.2543 126.142 40.933 139.556 36.3098L141.655 39.3452Z" fill="#FF8000"/>
<path opacity="0.05" d="M140.214 38.3098C140.214 38.3098 147.839 50.1651 142.582 56.3801C142.582 56.3801 132.006 51.6006 136.536 38.1169L140.214 38.3098Z" fill="black"/>
<path d="M140.962 38.2C140.962 38.2 148.587 50.0553 143.331 56.2702C143.331 56.2702 132.754 51.4907 137.284 38.0071L140.962 38.2Z" fill="#B247A7"/>
<path opacity="0.05" d="M145.463 36.8071C145.463 36.8071 153.088 48.6624 147.831 54.8774C147.831 54.8774 137.255 50.0979 141.785 36.6143L145.463 36.8071Z" fill="black"/>
<path d="M145.89 36.5979C145.89 36.5979 153.516 48.4532 148.259 54.6682C148.259 54.6682 137.682 49.8887 142.213 36.405L145.89 36.5979Z" fill="#FF8000"/>
<path opacity="0.05" d="M144.43 37.6277C144.43 37.6277 158.346 39.6763 159.557 47.743C159.557 47.743 149.007 52.5793 141.872 40.2834L144.43 37.6277Z" fill="black"/>
<path d="M144.858 37.4182C144.858 37.4182 158.774 39.4669 159.984 47.5335C159.984 47.5335 149.434 52.3698 142.299 40.0739L144.858 37.4182Z" fill="#B247A7"/>
<path opacity="0.05" d="M146.465 34.5679C146.465 34.5679 160.869 31.3701 166.452 39.1585C166.452 39.1585 159.039 48.1165 145.481 38.2571L146.465 34.5679Z" fill="black"/>
<path d="M146.788 34.1433C146.788 34.1433 161.192 30.9455 166.775 38.734C166.775 38.734 159.363 47.6919 145.805 37.8325L146.788 34.1433Z" fill="#FF8000"/>
<path d="M141.253 33.9888C141.253 33.9888 129.205 26.7079 131.195 18.7976C131.195 18.7976 142.789 18.422 144.635 32.529L141.253 33.9888Z" fill="#FF8000"/>
<path d="M141.253 33.9888C141.253 33.9888 129.205 26.7079 131.195 18.7976C131.195 18.7976 142.789 18.422 144.635 32.529L141.253 33.9888Z" fill="#9347B2"/>
<path d="M139.029 38.0295C139.029 38.0295 125.285 41.0223 121.321 33.8977C121.321 33.8977 129.501 25.6483 140.492 34.6388L139.029 38.0295Z" fill="#FF8000"/>
<path d="M139.029 38.0295C139.029 38.0295 125.285 41.0223 121.321 33.8977C121.321 33.8977 129.501 25.6483 140.492 34.6388L139.029 38.0295Z" fill="#9347B2"/>
<path d="M141.655 39.3452C141.655 39.3452 136.939 52.636 128.814 52.2543C128.814 52.2543 126.142 40.933 139.556 36.3098L141.655 39.3452Z" fill="#FF8000"/>
<path d="M141.655 39.3452C141.655 39.3452 136.939 52.636 128.814 52.2543C128.814 52.2543 126.142 40.933 139.556 36.3098L141.655 39.3452Z" fill="#9347B2"/>
<path d="M145.89 36.5979C145.89 36.5979 153.516 48.4532 148.259 54.6682C148.259 54.6682 137.682 49.8887 142.213 36.405L145.89 36.5979Z" fill="#FF8000"/>
<path d="M145.89 36.5979C145.89 36.5979 153.516 48.4532 148.259 54.6682C148.259 54.6682 137.682 49.8887 142.213 36.405L145.89 36.5979Z" fill="#9347B2"/>
<path d="M146.788 34.1433C146.788 34.1433 161.192 30.9455 166.775 38.734C166.775 38.734 159.363 47.6919 145.805 37.8325L146.788 34.1433Z" fill="#FF8000"/>
<path d="M146.788 34.1433C146.788 34.1433 161.192 30.9455 166.775 38.734C166.775 38.734 159.363 47.6919 145.805 37.8325L146.788 34.1433Z" fill="#9347B2"/>
<path opacity="0.05" d="M147.14 31.7088C147.14 31.7088 160.621 25.699 167.639 32.2185C167.639 32.2185 162.152 42.4759 146.91 35.5219L147.14 31.7088Z" fill="black"/>
<path opacity="0.05" d="M146.823 30.5292C146.823 30.5292 160.303 24.5193 167.321 31.0388C167.321 31.0388 161.834 41.2962 146.592 34.3422L146.823 30.5292Z" fill="black"/>
<path d="M147.14 31.1749C147.14 31.1749 160.621 25.165 167.639 31.6845C167.639 31.6845 162.152 41.9419 146.91 34.9879L147.14 31.1749Z" fill="#B247A7"/>
<path d="M152.089 33.0002C152.447 34.6837 152.298 36.4356 151.663 38.0345C151.028 39.6334 149.934 41.0075 148.52 41.983C147.106 42.9586 145.436 43.4918 143.72 43.5153C142.005 43.5388 140.32 43.0515 138.881 42.115C137.441 41.1786 136.31 39.835 135.632 38.2541C134.953 36.6732 134.757 34.9259 135.068 33.2333C135.379 31.5406 136.184 29.9785 137.38 28.7444C138.576 27.5103 140.11 26.6597 141.788 26.3C142.903 26.0612 144.054 26.0452 145.176 26.2527C146.297 26.4603 147.366 26.8873 148.323 27.5096C149.279 28.1318 150.104 28.9369 150.751 29.879C151.397 30.8211 151.852 31.8817 152.089 33.0002Z" fill="#B247A7"/>
<path d="M146.499 32.0156C146.146 30.8989 145.082 30.7263 143.821 30.8827L143.485 29.301L142.525 29.5041L142.853 31.0451C142.6 31.0999 142.343 31.1588 142.088 31.2197L141.758 29.6685L140.799 29.8716L141.135 31.4532C140.932 31.5019 140.73 31.5486 140.527 31.5933L139.204 31.8755L139.422 32.9049C139.422 32.9049 140.129 32.7405 140.119 32.7547C140.244 32.7108 140.382 32.7182 140.502 32.7752C140.622 32.8321 140.714 32.9342 140.76 33.0592L141.145 34.8622C141.179 34.8552 141.213 34.8504 141.248 34.848L141.147 34.8703L141.675 37.392C141.683 37.4381 141.682 37.4855 141.672 37.5312C141.662 37.5769 141.642 37.62 141.615 37.6579C141.587 37.6959 141.553 37.7278 141.513 37.7519C141.472 37.776 141.428 37.7917 141.382 37.7981C141.396 37.7981 140.683 37.9483 140.683 37.9483L140.738 39.1402L141.987 38.8722L142.687 38.7158L143.027 40.3158L143.987 40.1127L143.651 38.529C143.916 38.4783 144.171 38.4255 144.42 38.3727L144.756 39.9483L145.715 39.7452L145.375 38.1473C146.97 37.7088 148.007 37.059 147.829 35.5078C147.681 34.2592 146.991 33.8369 146.027 33.8125C146.515 33.4085 146.758 32.8278 146.499 32.0156ZM145.891 35.7251C146.146 36.921 144.07 37.2215 143.426 37.3616L142.975 35.2419C143.616 35.1038 145.618 34.4785 145.883 35.7251H145.891ZM144.8 32.8278C145.031 33.916 143.303 34.1536 142.76 34.2693L142.355 32.3466C142.89 32.2329 144.558 31.6948 144.8 32.8278Z" fill="white"/>
<path d="M137.091 78.2358C140.73 75.2372 142.121 70.902 140.197 68.5529C138.274 66.2039 133.764 66.7304 130.124 69.729C126.485 72.7276 125.094 77.0627 127.018 79.4118C128.941 81.7609 133.451 81.2344 137.091 78.2358Z" fill="#FF8000"/>
<path d="M137.9 67.8734C137.9 67.8734 145.997 56.3389 153.725 58.8952C153.725 58.8952 153.269 70.521 139.11 71.3616L137.9 67.8734Z" fill="#B247A7"/>
<path opacity="0.05" d="M136.167 68.7182C136.167 68.7182 137.694 54.6925 145.681 53.1819C145.681 53.1819 150.889 63.5774 138.904 71.1851L136.167 68.7182Z" fill="black"/>
<path d="M138.275 70.9556L137.888 70.6084L135.532 68.4887C135.532 68.4887 136.2 62.3591 138.961 57.7684C140.378 55.4132 142.341 53.462 145.05 52.9524C145.052 52.9524 150.26 63.3479 138.275 70.9556Z" fill="#9347B2"/>
<path opacity="0.05" d="M138.963 57.7688C140.204 60.8286 140.542 65.0883 137.915 70.6129H137.888L135.532 68.4932C135.532 68.4932 136.21 62.3594 138.963 57.7688Z" fill="black"/>
<path d="M137.483 70.8158L136.673 70.6737L133.853 70.1864C133.853 70.1864 131.194 64.7044 131.068 59.3686C131.001 56.589 131.623 53.8521 133.665 51.9517C133.665 51.9578 143.592 57.9758 137.483 70.8158Z" fill="#B247A7"/>
<path opacity="0.05" d="M136.75 70.641L136.665 70.6755L133.854 70.1862C133.854 70.1862 131.194 64.7042 131.068 59.3684C133.653 61.3379 136.072 64.7407 136.75 70.641Z" fill="black"/>
<path d="M132.911 72.2512C132.911 72.2512 120.978 64.7815 123.092 56.9037C123.092 56.9037 134.69 56.7128 136.316 70.8442L132.911 72.2512Z" fill="#FF8000"/>
<path opacity="0.05" d="M131.532 73.6073C131.532 73.6073 117.885 70.1902 117.477 62.0342C117.477 62.0342 128.452 58.2659 134.34 71.2095L131.532 73.6073Z" fill="black"/>
<path d="M131.099 73.8104C131.099 73.8104 117.452 70.3933 117.043 62.2374C117.043 62.2374 128.018 58.469 133.907 71.4126L131.099 73.8104Z" fill="#B247A7"/>
<path opacity="0.05" d="M130.636 75.7213C130.636 75.7213 116.845 78.4968 112.995 71.3093C112.995 71.3093 121.294 63.1878 132.152 72.3549L130.636 75.7213Z" fill="black"/>
<path d="M130.622 76.255C130.622 76.255 116.831 79.0305 112.981 71.843C112.981 71.843 121.28 63.7215 132.138 72.8886L130.622 76.255Z" fill="#FF8000"/>
<path opacity="0.05" d="M130.969 78.6632C130.969 78.6632 119.634 87.0182 113.122 82.1331C113.122 82.1331 117.235 71.2544 130.935 74.968L130.969 78.6632Z" fill="black"/>
<path d="M130.948 79.1991C130.948 79.1991 119.612 87.5541 113.101 82.669C113.101 82.669 117.214 71.7903 130.913 75.5039L130.948 79.1991Z" fill="#B247A7"/>
<path opacity="0.05" d="M132.596 77.382C132.596 77.382 127.671 90.5977 119.554 90.084C119.554 90.084 117.061 78.7139 130.546 74.3101L132.596 77.382Z" fill="black"/>
<path d="M133.228 77.6117C133.228 77.6117 128.304 90.8273 120.187 90.3156C120.187 90.3156 117.693 78.9456 131.178 74.5417L133.228 77.6117Z" fill="#FF8000"/>
<path opacity="0.05" d="M131.804 76.5456C131.804 76.5456 139.243 88.5247 133.889 94.6605C133.889 94.6605 123.39 89.7145 128.131 76.304L131.804 76.5456Z" fill="black"/>
<path d="M132.555 76.456C132.555 76.456 139.994 88.4351 134.64 94.5709C134.64 94.5709 124.141 89.6249 128.881 76.2144L132.555 76.456Z" fill="#B247A7"/>
<path opacity="0.05" d="M137.077 75.1344C137.077 75.1344 144.516 87.1136 139.162 93.2494C139.162 93.2494 128.663 88.3034 133.404 74.8928L137.077 75.1344Z" fill="black"/>
<path d="M137.509 74.9313C137.509 74.9313 144.948 86.9105 139.594 93.0462C139.594 93.0462 129.095 88.1003 133.835 74.6897L137.509 74.9313Z" fill="#FF8000"/>
<path opacity="0.05" d="M136.031 75.9382C136.031 75.9382 149.912 78.2062 150.995 86.2931C150.995 86.2931 140.371 90.9629 133.43 78.5554L136.031 75.9382Z" fill="black"/>
<path d="M136.463 75.7351C136.463 75.7351 150.345 78.003 151.428 86.09C151.428 86.09 140.803 90.7598 133.862 78.3523L136.463 75.7351Z" fill="#B247A7"/>
<path opacity="0.05" d="M138.114 72.911C138.114 72.911 152.566 69.9406 158.027 77.8164C158.027 77.8164 150.475 86.6566 137.073 76.5839L138.114 72.911Z" fill="black"/>
<path d="M138.436 72.4908C138.436 72.4908 152.889 69.5204 158.35 77.3962C158.35 77.3962 150.798 86.2364 137.396 76.1638L138.436 72.4908Z" fill="#FF8000"/>
<path d="M132.911 72.2512C132.911 72.2512 120.978 64.7815 123.092 56.9037C123.092 56.9037 134.69 56.7128 136.316 70.8442L132.911 72.2512Z" fill="#FF8000"/>
<path d="M132.911 72.2512C132.911 72.2512 120.978 64.7815 123.092 56.9037C123.092 56.9037 134.69 56.7128 136.316 70.8442L132.911 72.2512Z" fill="#9347B2"/>
<path d="M130.622 76.255C130.622 76.255 116.831 79.0305 112.981 71.843C112.981 71.843 121.28 63.7215 132.138 72.8886L130.622 76.255Z" fill="#FF8000"/>
<path d="M130.622 76.255C130.622 76.255 116.831 79.0305 112.981 71.843C112.981 71.843 121.28 63.7215 132.138 72.8886L130.622 76.255Z" fill="#9347B2"/>
<path d="M133.228 77.6117C133.228 77.6117 128.304 90.8273 120.187 90.3156C120.187 90.3156 117.693 78.9456 131.178 74.5417L133.228 77.6117Z" fill="#FF8000"/>
<path d="M133.228 77.6117C133.228 77.6117 128.304 90.8273 120.187 90.3156C120.187 90.3156 117.693 78.9456 131.178 74.5417L133.228 77.6117Z" fill="#9347B2"/>
<path d="M137.509 74.9313C137.509 74.9313 144.948 86.9105 139.594 93.0462C139.594 93.0462 129.095 88.1003 133.835 74.6897L137.509 74.9313Z" fill="#FF8000"/>
<path d="M137.509 74.9313C137.509 74.9313 144.948 86.9105 139.594 93.0462C139.594 93.0462 129.095 88.1003 133.835 74.6897L137.509 74.9313Z" fill="#9347B2"/>
<path d="M138.436 72.4908C138.436 72.4908 152.889 69.5204 158.35 77.3962C158.35 77.3962 150.798 86.2364 137.396 76.1638L138.436 72.4908Z" fill="#FF8000"/>
<path d="M138.436 72.4908C138.436 72.4908 152.889 69.5204 158.35 77.3962C158.35 77.3962 150.798 86.2364 137.396 76.1638L138.436 72.4908Z" fill="#9347B2"/>
<path opacity="0.05" d="M138.828 70.0646C138.828 70.0646 152.404 64.2679 159.314 70.897C159.314 70.897 153.667 81.0671 138.536 73.8715L138.828 70.0646Z" fill="black"/>
<path opacity="0.05" d="M138.537 68.8787C138.537 68.8787 152.111 63.08 159.024 69.7111C159.024 69.7111 153.376 79.8812 138.246 72.6856L138.537 68.8787Z" fill="black"/>
<path d="M138.843 69.5285C138.843 69.5285 152.417 63.7338 159.331 70.363C159.331 70.363 153.684 80.533 138.553 73.3374L138.843 69.5285Z" fill="#B247A7"/>
<path d="M143.763 71.433C144.094 73.122 143.919 74.8716 143.259 76.4606C142.599 78.0497 141.484 79.4068 140.056 80.3604C138.627 81.3141 136.948 81.8214 135.232 81.8182C133.516 81.815 131.84 81.3015 130.414 80.3426C128.989 79.3837 127.88 78.0225 127.226 76.431C126.572 74.8395 126.403 73.0893 126.74 71.4015C127.078 69.7138 127.907 68.1644 129.122 66.9492C130.338 65.734 131.885 64.9076 133.569 64.5744C135.827 64.1281 138.17 64.5999 140.082 65.8861C141.993 67.1723 143.317 69.1676 143.763 71.433Z" fill="#B247A7"/>
<path d="M138.189 70.3607C137.855 69.2379 136.794 69.0491 135.529 69.1852L135.218 67.5974L134.254 67.7883L134.558 69.3334C134.305 69.3841 134.048 69.439 133.79 69.4958L133.485 67.9405L132.521 68.1314L132.833 69.7191C132.631 69.7638 132.428 69.8085 132.226 69.8491L130.898 70.111L131.1 71.1424C131.1 71.1424 131.809 70.9881 131.799 71.0044C131.925 70.9623 132.063 70.9717 132.182 71.0306C132.301 71.0895 132.393 71.1931 132.436 71.3191L132.793 73.1281C132.827 73.1211 132.861 73.1164 132.896 73.1139L132.795 73.1342L133.286 75.6681C133.293 75.7136 133.29 75.7599 133.278 75.8043C133.266 75.8487 133.246 75.8903 133.218 75.9268C133.19 75.9632 133.156 75.9938 133.116 76.0166C133.076 76.0395 133.032 76.0542 132.987 76.06C133.001 76.06 132.287 76.198 132.287 76.198L132.321 77.3899L133.574 77.1422L134.262 77.0122L134.578 78.6182L135.539 78.4274L135.228 76.8396C135.493 76.7929 135.75 76.7442 135.999 76.6955L136.309 78.2771L137.272 78.0863L136.96 76.4803C138.561 76.0742 139.614 75.4346 139.456 73.8814C139.329 72.6307 138.646 72.1962 137.683 72.1576C138.185 71.7536 138.438 71.181 138.189 70.3607ZM137.517 74.0601C137.754 75.26 135.679 75.528 135.025 75.658L134.608 73.5301C135.26 73.4002 137.27 72.8073 137.515 74.0601H137.517ZM136.479 71.1485C136.693 72.2409 134.96 72.45 134.416 72.5576L134.037 70.6287C134.58 70.5191 136.254 70.0095 136.479 71.1465V71.1485Z" fill="white"/>
<path opacity="0.3" d="M184.326 25.7842C189.887 25.7842 194.395 21.2628 194.395 15.6852C194.395 10.1077 189.887 5.58618 184.326 5.58618C178.766 5.58618 174.258 10.1077 174.258 15.6852C174.258 21.2628 178.766 25.7842 184.326 25.7842Z" fill="#A04DAF"/>
<path d="M20.0717 97.2226L21.017 99.923L20.2903 104.457C20.2903 104.457 19.1932 108.073 19.3025 109.827C19.4118 111.581 19.3025 113.991 19.3025 113.991C19.3025 113.991 16.6711 118.814 18.8633 120.787C19.3734 121.246 19.8005 121.152 20.1547 120.742C20.5119 120.941 20.8795 121.12 21.2559 121.278L19.4159 128.458L17.6589 131.964C17.6589 131.964 13.9264 135.142 12.4993 141.828C12.4993 141.828 11.0824 146.282 10.1695 147.61C10.128 147.672 10.0827 147.732 10.0339 147.789C9.89196 147.562 9.76223 147.327 9.64527 147.086L7.99761 151.47C7.99761 151.47 11.2909 153.334 13.5964 154.109C15.902 154.885 18.5374 154 19.3046 153.013C20.0717 152.026 17.7682 150.93 16.1206 150.274C15.321 149.955 14.8858 149.198 14.647 148.501C14.6247 148.286 14.6085 148.047 14.6004 147.785C14.566 146.54 14.7563 144.861 15.7906 143.588C17.6569 141.286 20.511 135.588 20.511 135.588C20.511 135.588 23.3671 132.518 24.0249 131.3L27.9781 124.681C30.1703 127.181 32.3705 133.061 32.3705 133.061L33.249 138.431C33.249 138.431 36.1031 146.102 36.9816 146.869C37.0058 146.891 37.0301 146.914 37.0544 146.94L37.0767 146.965L37.1293 147.025L37.1516 147.052L37.2204 147.143L37.2366 147.168L37.2892 147.247L37.3135 147.287L37.3601 147.367L37.3823 147.403L37.4451 147.519L37.4674 147.561L37.5099 147.649L37.5342 147.7L37.5787 147.795L37.5969 147.836L37.6536 147.97L37.6758 148.022L37.7143 148.12L37.7366 148.175L37.7852 148.3L37.7973 148.333L37.8479 148.473L37.8661 148.526L37.9046 148.635L37.9208 148.682L37.9714 148.836V148.857L38.0139 148.993L38.0281 149.04L38.0665 149.163V149.196L38.111 149.35V149.381L38.1455 149.502L38.1576 149.547L38.19 149.663V149.695L38.2244 149.827L38.2406 149.89L38.2568 149.953L38.277 150.03V150.051C38.3033 150.152 38.3256 150.254 38.3458 150.335L38.3722 150.445L38.3843 150.495V150.51C38.2237 150.403 38.0708 150.285 37.9268 150.156C37.9908 150.886 37.9908 151.619 37.9268 152.349C37.8175 153.445 38.9146 154.988 38.9146 154.988C38.9146 154.988 48.7946 152.576 49.3431 150.928C49.8917 149.279 47.5861 149.507 46.9283 149.722C46.2704 149.937 42.9771 149.283 42.5379 148.516C42.4548 148.374 42.3557 148.243 42.2423 148.124C42.1478 148.021 42.0214 147.952 41.8835 147.929C41.7455 147.906 41.6039 147.931 41.4813 147.998L41.457 147.97L41.4286 147.935L41.4084 147.911L41.374 147.864C41.3497 147.831 41.3254 147.795 41.3011 147.758L41.2748 147.718C41.2303 147.649 41.1857 147.574 41.1412 147.492V147.476C40.4408 146.193 39.6879 143.576 39.5219 142.955V142.94L39.5077 142.89V142.871V142.857V142.831V142.818L36.9836 134.6C37.7528 131.641 36.9836 130.216 36.9836 130.216L35.5565 123.53L34.7469 120.503C34.7712 120.476 34.7833 120.462 34.7833 120.462C34.1275 118.621 33.6113 114.714 33.2915 111.695C33.2713 111.499 33.251 111.307 33.2308 111.12L35.6598 112.243C35.6598 112.243 38.9531 117.285 41.04 114.883C43.1269 112.481 36.8682 110.39 36.8682 110.39L32.9251 107.748V107.632L32.4859 104.345C32.4859 104.345 31.2714 100.4 31.828 97.7688C32.2956 95.5354 30.7714 94.7232 30.3099 94.5202C30.2376 94.492 30.1631 94.4696 30.0873 94.4532C29.48 94.3111 28.8141 93.6959 28.2433 93.032C27.7509 92.4662 27.1738 91.9805 26.5328 91.5924C26.9038 91.3458 27.1622 90.9618 27.2514 90.5244C27.3425 90.0189 27.1705 89.5093 27.0146 89.02C27.2382 88.4707 27.4979 87.9369 27.7919 87.4221H27.8101L27.9437 87.2007C29.1017 87.066 30.1702 86.5098 30.9466 85.6374C31.723 84.7651 32.1533 83.6373 32.156 82.468C32.1534 81.6683 31.9486 80.8824 31.5609 80.1838C32.0527 80.0133 32.5244 79.796 32.3462 79.2904C32.2268 78.9473 31.905 78.724 31.656 78.4621C30.9941 77.7636 30.7937 76.7159 30.1014 76.05C29.9016 75.8595 29.67 75.7056 29.4173 75.5952C28.7149 75.1891 27.8141 75.1444 27.0024 75.2947C25.9904 75.4795 25.0593 75.9241 24.0775 76.2084C23.2132 76.4601 22.3104 76.588 21.4846 76.9413C20.0677 77.5504 18.9868 78.7686 18.335 80.1554C17.7601 81.3736 17.4909 82.74 16.8614 83.938C16.2319 85.1359 15.0761 86.2181 13.7199 86.1714C13.3697 86.1592 13.0054 86.0739 12.6775 86.1977C12.4195 86.31 12.2059 86.505 12.0702 86.752C11.3253 87.9703 11.8051 89.6047 11.212 90.9021C10.7727 91.8665 9.8234 92.4756 9.04612 93.1984C8.26884 93.9213 7.59885 94.9994 7.96724 95.9922C8.07131 96.2426 8.22434 96.4695 8.41729 96.6595C8.61024 96.8496 8.8392 96.9989 9.09065 97.0988C9.34479 97.2376 9.61847 97.3368 9.90234 97.3932C10.6391 97.5434 11.4022 97.4521 12.1512 97.3932C14.1753 97.249 16.4019 97.3262 18.0212 96.0856C18.6852 95.574 19.1973 94.8674 19.7276 94.2035C19.7333 95.2194 19.8487 96.2316 20.0717 97.2226ZM22.9946 104.114C23.1586 104.388 23.3266 104.658 23.5006 104.926C25.12 107.411 22.9258 110.814 22.9258 110.814C22.4271 111.224 21.9985 111.713 21.6566 112.262C21.685 111.216 21.8064 110.028 22.1586 109.169C22.7052 107.843 22.9177 105.409 22.9966 104.114H22.9946Z" fill="url(#paint2_linear)"/>
<path d="M21.346 99.3523L20.4878 104.702C20.4878 104.702 19.415 108.235 19.5223 109.947C19.6295 111.658 19.5223 114.007 19.5223 114.007C19.5223 114.007 16.9495 118.718 19.0931 120.645C21.2367 122.572 21.8804 114.543 21.8804 114.543C21.8804 114.543 21.5586 111.118 22.3095 109.299C23.0605 107.48 23.1678 103.519 23.1678 103.519L21.346 99.3523Z" fill="#FFCDD3"/>
<path d="M21.346 99.3523L20.4878 104.702C20.4878 104.702 19.415 108.235 19.5223 109.947C19.6295 111.658 19.5223 114.007 19.5223 114.007C19.5223 114.007 16.9495 118.718 19.0931 120.645C21.2367 122.572 21.8804 114.543 21.8804 114.543C21.8804 114.543 21.5586 111.118 22.3095 109.299C23.0605 107.48 23.1678 103.519 23.1678 103.519L21.346 99.3523Z" fill="#F89D8F"/>
<path d="M33.9094 117.756L35.3931 123.329L36.7878 129.859C36.7878 129.859 37.5388 131.249 36.7878 134.141L39.2532 142.169C39.2532 142.169 40.6479 147.308 41.5041 147.413C42.3603 147.519 40.6458 151.474 40.6458 151.474L38.2877 150.083C38.2877 150.083 37.6339 146.879 36.7858 146.122C35.9376 145.365 33.1423 137.879 33.1423 137.879L32.284 132.634C32.284 132.634 29.604 125.463 27.2439 123.749C24.8837 122.036 24.1348 119.254 24.1348 119.254L33.9094 117.756Z" fill="#FFCDD3"/>
<path d="M24.1343 119.26C24.1343 119.26 24.8852 122.044 27.2434 123.756C29.6015 125.467 32.2835 132.64 32.2835 132.64L33.1418 137.885C33.1418 137.885 35.9291 145.377 36.7853 146.128C37.4148 146.678 37.9289 148.565 38.1577 149.515C38.2406 149.862 38.2872 150.089 38.2872 150.089L40.6453 151.48C40.6453 151.48 42.3618 147.519 41.5036 147.419C41.37 147.403 41.2243 147.265 41.0724 147.044C40.2466 145.842 39.2507 142.171 39.2507 142.171L36.7873 134.141C37.5383 131.252 36.7873 129.859 36.7873 129.859L35.3927 123.329L33.9089 117.756L24.1343 119.26Z" fill="#F89D8F"/>
<path d="M10.4102 147.093L11.2684 149.123L15.1285 148.694C15.0078 148.142 14.9401 147.579 14.9261 147.013C14.8916 145.795 15.0779 144.159 16.0879 142.914C17.9097 140.666 20.699 135.099 20.699 135.099C20.699 135.099 23.4862 132.102 24.14 130.925L29.5081 121.936L29.3401 121.124L30.7874 119.786H21.7799L19.6363 128.135L17.9198 131.56C17.9198 131.56 14.2763 134.665 12.8796 141.194C12.8796 141.194 11.489 145.545 10.6025 146.843C10.5469 146.932 10.4825 147.016 10.4102 147.093Z" fill="#F89D8F"/>
<path opacity="0.1" d="M38.1592 149.515C38.2422 149.862 38.2887 150.089 38.2887 150.089L40.6469 151.48C40.6469 151.48 42.3634 147.519 41.5051 147.419C41.3715 147.403 41.2258 147.265 41.074 147.044C40.9634 147.111 40.8771 147.212 40.8275 147.331C40.778 147.451 40.7679 147.584 40.7987 147.71C40.8326 147.87 40.8899 148.023 40.9687 148.166C41.2906 148.703 39.8959 149.557 39.8959 149.557C39.4263 150.158 38.6652 149.84 38.1592 149.515Z" fill="black"/>
<path d="M40.9049 147.921C40.8746 147.787 40.889 147.647 40.9457 147.523C41.0025 147.398 41.0985 147.295 41.219 147.231C41.3396 147.166 41.4779 147.143 41.6128 147.165C41.7477 147.187 41.8716 147.253 41.9656 147.352C42.0759 147.469 42.1723 147.597 42.253 147.736C42.6821 148.485 45.8965 149.127 46.5422 148.914C47.1879 148.701 49.4367 148.485 48.9003 150.091C48.3639 151.697 38.7148 154.053 38.7148 154.053C38.7148 154.053 37.642 152.554 37.7492 151.484C37.8116 150.772 37.8116 150.056 37.7492 149.344C37.7492 149.344 39.2532 150.733 40.0021 149.777C40.0021 149.777 41.3968 148.92 41.0749 148.386C40.9953 148.24 40.938 148.084 40.9049 147.921Z" fill="#B247A7"/>
<path opacity="0.1" d="M10.4102 147.092L11.2684 149.123L15.1285 148.694C15.0078 148.141 14.9401 147.579 14.9261 147.013C14.8879 146.936 14.8318 146.87 14.7625 146.82C14.6933 146.77 14.6129 146.737 14.5283 146.725C14.4437 146.713 14.3574 146.721 14.2769 146.75C14.1963 146.778 14.1239 146.826 14.0658 146.889C13.8634 147.102 13.661 147.33 13.5152 147.515C13.0861 148.051 11.6935 147.728 11.6935 147.728C11.3311 147.847 10.9041 147.322 10.5964 146.847C10.5425 146.934 10.4802 147.017 10.4102 147.092Z" fill="black"/>
<path d="M13.9512 147.109C14.0153 147.039 14.0967 146.989 14.1869 146.962C14.2771 146.935 14.3729 146.932 14.4644 146.955C14.5558 146.977 14.6396 147.024 14.707 147.09C14.7745 147.156 14.8231 147.239 14.8479 147.33C15.0503 148.091 15.4713 149.074 16.4024 149.448C18.0116 150.089 20.2625 151.161 19.5115 152.124C18.7606 153.086 16.1879 153.951 13.935 153.194C11.6821 152.436 8.46973 150.625 8.46973 150.625L10.0789 146.343C10.0789 146.343 10.9372 148.171 11.5809 147.949C11.5809 147.949 12.9755 148.27 13.4026 147.736C13.5605 147.543 13.7609 147.324 13.9512 147.109Z" fill="#B247A7"/>
<path d="M20.0578 120.44C24.347 123.008 29.4945 121.938 29.4945 121.938L29.3872 121.189L29.6099 121.212C33.7088 121.573 34.6399 120.334 34.6399 120.334C33.9982 118.535 33.4962 114.72 33.1825 111.77C33.138 111.346 33.0975 110.94 33.059 110.552C32.974 109.693 32.9113 108.968 32.8708 108.479C32.8364 108.049 32.8181 107.801 32.8181 107.801L32.389 104.589C32.389 104.589 31.2089 100.731 31.7453 98.1669C32.2028 95.9781 30.715 95.1883 30.2637 95.0015C30.1926 94.9741 30.1195 94.9524 30.0451 94.9366C29.456 94.7965 28.8022 94.1975 28.2456 93.5539C27.4333 92.6252 26.3979 91.92 25.2377 91.5052C24.6992 91.3022 24.2398 91.0992 24.2398 91.0992C23.4888 90.2424 21.4525 90.7784 21.4525 90.7784C18.9871 92.3844 20.2724 97.6288 20.2724 97.6288L21.2966 100.553C21.886 102.173 22.6661 103.718 23.6204 105.153C25.1972 107.59 23.0577 110.901 23.0577 110.901C19.736 113.587 20.0578 120.44 20.0578 120.44Z" fill="#9347B2"/>
<path opacity="0.05" d="M29.2275 115.463L29.6121 121.211C33.7111 121.573 34.6422 120.334 34.6422 120.334C34.0005 118.535 33.4985 114.72 33.1848 111.77C33.1402 111.346 33.0998 110.94 33.0613 110.552L29.2275 115.463Z" fill="black"/>
<path opacity="0.1" d="M22.4181 100.422C22.4181 100.422 24.3492 104.063 24.9908 105.667C25.6325 107.271 25.6345 106.737 25.9563 107.273C26.2782 107.809 29.7091 110.162 29.7091 110.162L33.1806 111.768C33.0328 110.385 32.9275 109.192 32.8688 108.487L29.5978 106.311C29.5978 106.311 27.3469 104.92 27.2397 103.098C27.1324 101.277 25.7377 97.9596 25.7377 97.9596C25.7377 97.9596 22.9505 94.9628 21.7704 96.3536C20.5903 97.7444 22.4181 100.422 22.4181 100.422Z" fill="black"/>
<path d="M25.7415 97.4255C25.7415 97.4255 27.1361 100.743 27.2434 102.564C27.3507 104.386 29.6015 105.776 29.6015 105.776L36.6861 110.487C36.6861 110.487 42.797 112.517 40.7607 114.877C38.7244 117.236 35.4979 112.308 35.4979 112.308L29.7068 109.632C29.7068 109.632 26.2657 107.277 25.954 106.743C25.6423 106.209 25.6322 106.743 24.9885 105.137C24.3448 103.531 22.4158 99.8924 22.4158 99.8924C22.4158 99.8924 20.594 97.2164 21.7721 95.8317C22.9501 94.447 25.7415 97.4255 25.7415 97.4255Z" fill="#F89D8F"/>
<path opacity="0.1" d="M26.6007 98.8144C26.6007 98.8144 24.4571 97.2084 24.028 96.6744C23.8377 96.4389 23.5442 96.4713 23.275 96.585C22.7727 96.7996 22.2263 96.8895 21.682 96.847C21.2124 96.8064 20.7569 96.8327 20.8116 97.1008C20.9189 97.6368 20.4897 94.3171 20.4897 94.3171L22.3115 93.6755L24.6798 94.9567L26.6007 98.8144Z" fill="black"/>
<path d="M26.6007 98.6113C26.6007 98.6113 24.4571 97.0052 24.028 96.4713C23.8377 96.2357 23.5442 96.2682 23.275 96.3819C22.7727 96.5965 22.2263 96.6864 21.682 96.6438C21.2124 96.6032 20.7569 96.6296 20.8116 96.8976C20.9189 97.4336 20.4897 94.114 20.4897 94.114L22.3115 93.4724L24.6798 94.7536L26.6007 98.6113Z" fill="#9347B2"/>
<path opacity="0.1" d="M31.6497 98.8144C31.2617 98.985 30.8384 99.0595 30.4157 99.0316C29.9929 99.0037 29.5831 98.8742 29.2207 98.6541" fill="black"/>
<path opacity="0.1" d="M24.6168 84.5267C24.6978 83.8872 23.9043 85.215 23.8071 84.474L28.4182 87.15C28.4182 87.15 28.155 87.5114 27.8109 88.0839C27.6362 88.1039 27.4605 88.1141 27.2846 88.1144C25.9102 88.1124 25.471 85.4851 24.6168 84.5267Z" fill="black"/>
<path d="M27.4039 87.8972C29.9796 87.8972 32.0676 85.8128 32.0676 83.2416C32.0676 80.6703 29.9796 78.5859 27.4039 78.5859C24.8282 78.5859 22.7402 80.6703 22.7402 83.2416C22.7402 85.8128 24.8282 87.8972 27.4039 87.8972Z" fill="#F89D8F"/>
<path opacity="0.1" d="M29.4975 83.3226C29.4953 83.6175 29.4383 83.9095 29.3295 84.1835C29.1271 84.5469 28.7222 84.7114 28.3619 84.9286C26.945 85.8057 26.5139 87.7711 26.9693 89.3853C27.1292 89.9538 27.3741 90.5324 27.279 91.1131C27.0989 92.1121 25.9572 92.6318 24.9431 92.7191C23.929 92.8064 22.8684 92.644 21.919 93.0135C20.326 93.6328 19.6257 95.4987 18.2755 96.5403C16.7007 97.7585 14.5329 97.6773 12.5492 97.8174C11.8165 97.8702 11.0716 97.9575 10.351 97.8174C9.63036 97.6773 8.91988 97.2367 8.66483 96.5484C8.30655 95.5779 8.96036 94.518 9.71942 93.8196C10.4785 93.1212 11.4055 92.5202 11.8347 91.5862C12.4136 90.3192 11.946 88.7193 12.6727 87.5255C12.8047 87.2843 13.0125 87.0937 13.2637 86.9834C13.5835 86.8636 13.9398 86.9468 14.2758 86.959C15.5996 87.0037 16.7291 85.9438 17.3444 84.7784C17.9598 83.6129 18.2209 82.281 18.7836 81.0831C19.4192 79.7268 20.4799 78.5309 21.8603 77.9442C22.67 77.599 23.5505 77.4731 24.3926 77.2274C25.352 76.9493 26.2669 76.5148 27.2487 76.3341C28.2304 76.1534 29.3437 76.2732 30.0602 76.9655C30.7363 77.6173 30.9326 78.6406 31.5783 79.3228C31.8233 79.5806 32.135 79.7979 32.2544 80.1349C32.5337 80.9268 31.1816 80.9938 30.7322 81.3125C30.3998 81.5445 30.1186 81.8427 29.9061 82.1886C29.6937 82.5344 29.5546 82.9204 29.4975 83.3226Z" fill="black"/>
<path d="M29.2817 83.2154C29.2794 83.5104 29.2225 83.8023 29.1137 84.0763C28.9113 84.4397 28.5064 84.6042 28.1461 84.8214C26.7292 85.6986 26.2981 87.664 26.7535 89.2781C26.9134 89.8466 27.1583 90.4253 27.0632 91.0059C26.883 92.0049 25.7414 92.5247 24.7273 92.612C23.7132 92.6993 22.6525 92.5368 21.7032 92.9064C20.1102 93.5256 19.4098 95.3915 18.0597 96.4331C16.4849 97.6513 14.317 97.5701 12.3334 97.7102C11.6006 97.763 10.8557 97.8503 10.1351 97.7102C9.41453 97.5701 8.70405 97.1295 8.44901 96.4412C8.09073 95.4707 8.74454 94.4109 9.5036 93.7124C10.2627 93.014 11.1897 92.413 11.6188 91.479C12.1978 90.2121 11.7302 88.6121 12.4568 87.4183C12.5888 87.1771 12.7966 86.9865 13.0479 86.8762C13.3677 86.7564 13.724 86.8396 14.06 86.8518C15.3838 86.8965 16.5133 85.8366 17.1286 84.6712C17.744 83.5058 18.0051 82.1739 18.5678 80.9759C19.2034 79.6197 20.264 78.4238 21.6445 77.837C22.4542 77.4918 23.3347 77.3659 24.1767 77.1203C25.1362 76.8421 26.0511 76.4076 27.0328 76.2269C28.0145 76.0462 29.1278 76.166 29.8444 76.8584C30.5205 77.5101 30.7168 78.5334 31.3625 79.2156C31.6074 79.4735 31.9191 79.6907 32.0386 80.0278C32.3179 80.8196 30.9658 80.8866 30.5164 81.2054C30.184 81.4373 29.9027 81.7356 29.6903 82.0814C29.4779 82.4272 29.3388 82.8133 29.2817 83.2154Z" fill="#141720"/>
<path d="M43.1887 66.9378C43.8851 69.4696 46.2999 71.0086 46.2999 71.0086C46.2999 71.0086 47.5893 68.4443 46.893 65.9124C46.1967 63.3806 43.7818 61.8416 43.7818 61.8416C43.7818 61.8416 42.4924 64.414 43.1887 66.9378Z" fill="#B247A7"/>
<path d="M56.2065 81.0427C55.4575 83.5583 56.6923 86.1491 56.6923 86.1491C56.6923 86.1491 59.1395 84.6608 59.8884 82.1452C60.6374 79.6296 59.4026 77.0388 59.4026 77.0388C59.4026 77.0388 56.9554 78.5271 56.2065 81.0427Z" fill="#B247A7"/>
<path d="M150.098 97.2269C148.261 99.0969 148.141 101.966 148.141 101.966C148.141 101.966 150.999 101.803 152.837 99.9354C154.675 98.0675 154.795 95.1965 154.795 95.1965C154.795 95.1965 151.936 95.363 150.098 97.2269Z" fill="#B247A7"/>
</g>
<defs>
<linearGradient id="paint0_linear" x1="108.817" y1="-0.505024" x2="113.699" y2="230.876" gradientUnits="userSpaceOnUse">
<stop stop-color="#FD749B"/>
<stop offset="1" stop-color="#281AC8"/>
</linearGradient>
<linearGradient id="paint1_linear" x1="93.3943" y1="150.01" x2="93.3943" y2="0.418945" gradientUnits="userSpaceOnUse">
<stop stop-color="#808080" stop-opacity="0.25"/>
<stop offset="0.54" stop-color="#808080" stop-opacity="0.12"/>
<stop offset="1" stop-color="#808080" stop-opacity="0.1"/>
</linearGradient>
<linearGradient id="paint2_linear" x1="-56306.8" y1="66336.2" x2="-56306.8" y2="34996.6" gradientUnits="userSpaceOnUse">
<stop stop-color="#808080" stop-opacity="0.25"/>
<stop offset="0.54" stop-color="#808080" stop-opacity="0.12"/>
<stop offset="1" stop-color="#808080" stop-opacity="0.1"/>
</linearGradient>
<clipPath id="clip0">
<rect width="197.012" height="154.562" fill="white" transform="translate(0.460449 0.418945)"/>
</clipPath>
</defs>
</svg>
