<svg width="283" height="566" viewBox="0 0 283 566" fill="none" xmlns="http://www.w3.org/2000/svg">
<path fill-rule="evenodd" clip-rule="evenodd" d="M41.2029 0H241.58C263.138 0 280.614 17.5368 280.614 39.1695V526.83C280.614 548.463 263.138 566 241.58 566H41.2029C19.6448 566 2.16846 548.463 2.16846 526.83V39.1695C2.16846 17.5368 19.6448 0 41.2029 0Z" fill="#444444"/>
<path fill-rule="evenodd" clip-rule="evenodd" d="M41.8536 3.26416H240.929C261.05 3.26416 277.362 19.6318 277.362 39.8224V526.178C277.362 546.368 261.05 562.736 240.929 562.736H41.8536C21.7326 562.736 5.42139 546.368 5.42139 526.178V39.8224C5.42139 19.6318 21.7326 3.26416 41.8536 3.26416Z" fill="#141414"/>
<rect x="276.061" y="54.4021" width="4.77094" height="4.35218" fill="#141414"/>
<rect x="2.16846" y="54.4021" width="4.77088" height="4.35218" fill="#141414"/>
<rect x="276.061" y="507.028" width="4.77094" height="4.3522" fill="#141414"/>
<rect x="2.16846" y="507.028" width="4.77088" height="4.3522" fill="#141414"/>
<path fill-rule="evenodd" clip-rule="evenodd" d="M19.6265 41.5332C19.6265 28.3295 30.3056 17.6257 43.4805 17.6257H239.738C252.912 17.6257 263.592 28.3287 263.592 41.5332V523.16C263.592 536.364 252.913 547.068 239.738 547.068H43.4805C30.3063 547.068 19.6265 536.365 19.6265 523.16V41.5332Z" fill="white"/>
<path fill-rule="evenodd" clip-rule="evenodd" d="M112.766 26.113C114.204 26.113 115.369 24.9439 115.369 23.5017C115.369 22.0595 114.204 20.8904 112.766 20.8904C111.329 20.8904 110.164 22.0595 110.164 23.5017C110.164 24.9439 111.329 26.113 112.766 26.113Z" fill="#444444"/>
<path fill-rule="evenodd" clip-rule="evenodd" d="M173.053 27.8538C175.448 27.8538 177.39 25.9052 177.39 23.5016C177.39 21.0979 175.448 19.1494 173.053 19.1494C170.658 19.1494 168.716 21.0979 168.716 23.5016C168.716 25.9052 170.658 27.8538 173.053 27.8538Z" fill="#444444"/>
<path fill-rule="evenodd" clip-rule="evenodd" d="M127.079 21.7607H156.138C157.096 21.7607 157.872 22.5402 157.872 23.5016C157.872 24.463 157.096 25.2425 156.138 25.2425H127.079C126.121 25.2425 125.344 24.463 125.344 23.5016C125.344 22.5402 126.121 21.7607 127.079 21.7607Z" fill="#444444"/>
<path fill-rule="evenodd" clip-rule="evenodd" d="M0 117.942C0 117.462 0.465239 117.073 1.04346 117.073H2.6023V158.419H1.04346C0.467173 158.419 0 158.029 0 157.551V117.942Z" fill="#444444"/>
<path fill-rule="evenodd" clip-rule="evenodd" d="M0 169.515C0 169.035 0.465239 168.646 1.04346 168.646H2.6023V209.992H1.04346C0.467173 209.992 0 209.603 0 209.124V169.515Z" fill="#444444"/>
<path fill-rule="evenodd" clip-rule="evenodd" d="M0 77.468C0 76.9876 0.465239 76.5981 1.04346 76.5981H2.6023V99.2294H1.04346C0.467173 99.2294 0 98.8414 0 98.3596V77.468Z" fill="#444444"/>
<path fill-rule="evenodd" clip-rule="evenodd" d="M280.398 130.13H281.699C282.418 130.13 283 130.615 283 131.217V196.502C283 197.102 282.416 197.589 281.699 197.589H280.398V130.13Z" fill="#444444"/>
<path fill-rule="evenodd" clip-rule="evenodd" d="M72.4307 17.626V21.5381C72.4307 30.1825 79.4313 37.1866 88.067 37.1866H194.933C203.568 37.1866 210.569 30.1806 210.569 21.5381V20.4522V20.2357V17.626H72.4307Z" fill="#212121"/>
</svg>
